  0
SECTION
  2
HEADER
  9
$ACADVER
  1
AC1024
  9
$ACADMAINTVER
 70
6
  9
$DWGCODEPAGE
  3
ANSI_1252
  9
$LASTSAVEDBY
  1
ezdxf
  9
$INSBASE
 10
0.0
 20
0.0
 30
0.0
  9
$EXTMIN
 10
1e+20
 20
1e+20
 30
1e+20
  9
$EXTMAX
 10
-1e+20
 20
-1e+20
 30
-1e+20
  9
$LIMMIN
 10
0.0
 20
0.0
  9
$LIMMAX
 10
420.0
 20
297.0
  9
$ORTHOMODE
 70
0
  9
$REGENMODE
 70
1
  9
$FILLMODE
 70
1
  9
$QTEXTMODE
 70
0
  9
$MIRRTEXT
 70
1
  9
$LTSCALE
 40
1.0
  9
$ATTMODE
 70
1
  9
$TEXTSIZE
 40
2.5
  9
$TRACEWID
 40
1.0
  9
$TEXTSTYLE
  7
Standard
  9
$CLAYER
  8
0
  9
$CELTYPE
  6
ByLayer
  9
$CECOLOR
 62
256
  9
$CELTSCALE
 40
1.0
  9
$DISPSILH
 70
0
  9
$DIMSCALE
 40
1.0
  9
$DIMASZ
 40
2.5
  9
$DIMEXO
 40
0.625
  9
$DIMDLI
 40
3.75
  9
$DIMRND
 40
0.0
  9
$DIMDLE
 40
0.0
  9
$DIMEXE
 40
1.25
  9
$DIMTP
 40
0.0
  9
$DIMTM
 40
0.0
  9
$DIMTXT
 40
2.5
  9
$DIMCEN
 40
2.5
  9
$DIMTSZ
 40
0.0
  9
$DIMTOL
 70
0
  9
$DIMLIM
 70
0
  9
$DIMTIH
 70
0
  9
$DIMTOH
 70
0
  9
$DIMSE1
 70
0
  9
$DIMSE2
 70
0
  9
$DIMTAD
 70
1
  9
$DIMZIN
 70
8
  9
$DIMBLK
  1

  9
$DIMASO
 70
1
  9
$DIMSHO
 70
1
  9
$DIMPOST
  1

  9
$DIMAPOST
  1

  9
$DIMALT
 70
0
  9
$DIMALTD
 70
3
  9
$DIMALTF
 40
0.03937007874
  9
$DIMLFAC
 40
1.0
  9
$DIMTOFL
 70
1
  9
$DIMTVP
 40
0.0
  9
$DIMTIX
 70
0
  9
$DIMSOXD
 70
0
  9
$DIMSAH
 70
0
  9
$DIMBLK1
  1

  9
$DIMBLK2
  1

  9
$DIMSTYLE
  2
ISO-25
  9
$DIMCLRD
 70
0
  9
$DIMCLRE
 70
0
  9
$DIMCLRT
 70
0
  9
$DIMTFAC
 40
1.0
  9
$DIMGAP
 40
0.625
  9
$DIMJUST
 70
0
  9
$DIMSD1
 70
0
  9
$DIMSD2
 70
0
  9
$DIMTOLJ
 70
0
  9
$DIMTZIN
 70
8
  9
$DIMALTZ
 70
0
  9
$DIMALTTZ
 70
0
  9
$DIMUPT
 70
0
  9
$DIMDEC
 70
2
  9
$DIMTDEC
 70
2
  9
$DIMALTU
 70
2
  9
$DIMALTTD
 70
3
  9
$DIMTXSTY
  7
Standard
  9
$DIMAUNIT
 70
0
  9
$DIMADEC
 70
0
  9
$DIMALTRND
 40
0.0
  9
$DIMAZIN
 70
0
  9
$DIMDSEP
 70
44
  9
$DIMATFIT
 70
3
  9
$DIMFRAC
 70
0
  9
$DIMLDRBLK
  1

  9
$DIMLUNIT
 70
2
  9
$DIMLWD
 70
-2
  9
$DIMLWE
 70
-2
  9
$DIMTMOVE
 70
0
  9
$DIMFXL
 40
1.0
  9
$DIMFXLON
 70
0
  9
$DIMJOGANG
 40
0.785398163397
  9
$DIMTFILL
 70
0
  9
$DIMTFILLCLR
 70
0
  9
$DIMARCSYM
 70
0
  9
$DIMLTYPE
  6

  9
$DIMLTEX1
  6

  9
$DIMLTEX2
  6

  9
$DIMTXTDIRECTION
 70
0
  9
$LUNITS
 70
2
  9
$LUPREC
 70
4
  9
$SKETCHINC
 40
1.0
  9
$FILLETRAD
 40
10.0
  9
$AUNITS
 70
0
  9
$AUPREC
 70
2
  9
$MENU
  1
.
  9
$ELEVATION
 40
0.0
  9
$PELEVATION
 40
0.0
  9
$THICKNESS
 40
0.0
  9
$LIMCHECK
 70
0
  9
$CHAMFERA
 40
0.0
  9
$CHAMFERB
 40
0.0
  9
$CHAMFERC
 40
0.0
  9
$CHAMFERD
 40
0.0
  9
$SKPOLY
 70
0
  9
$TDCREATE
 40
2461130.727141204
  9
$TDUCREATE
 40
2458532.153996898
  9
$TDUPDATE
 40
2461130.727152778
  9
$TDUUPDATE
 40
2458532.1544311
  9
$TDINDWG
 40
0.0
  9
$TDUSRTIMER
 40
0.0
  9
$USRTIMER
 70
1
  9
$ANGBASE
 50
0.0
  9
$ANGDIR
 70
0
  9
$PDMODE
 70
0
  9
$PDSIZE
 40
0.0
  9
$PLINEWID
 40
0.0
  9
$SPLFRAME
 70
0
  9
$SPLINETYPE
 70
6
  9
$SPLINESEGS
 70
8
  9
$HANDSEED
  5
2B1
  9
$SURFTAB1
 70
6
  9
$SURFTAB2
 70
6
  9
$SURFTYPE
 70
6
  9
$SURFU
 70
6
  9
$SURFV
 70
6
  9
$UCSBASE
  2

  9
$UCSNAME
  2

  9
$UCSORG
 10
0.0
 20
0.0
 30
0.0
  9
$UCSXDIR
 10
1.0
 20
0.0
 30
0.0
  9
$UCSYDIR
 10
0.0
 20
1.0
 30
0.0
  9
$UCSORTHOREF
  2

  9
$UCSORTHOVIEW
 70
0
  9
$UCSORGTOP
 10
0.0
 20
0.0
 30
0.0
  9
$UCSORGBOTTOM
 10
0.0
 20
0.0
 30
0.0
  9
$UCSORGLEFT
 10
0.0
 20
0.0
 30
0.0
  9
$UCSORGRIGHT
 10
0.0
 20
0.0
 30
0.0
  9
$UCSORGFRONT
 10
0.0
 20
0.0
 30
0.0
  9
$UCSORGBACK
 10
0.0
 20
0.0
 30
0.0
  9
$PUCSBASE
  2

  9
$PUCSNAME
  2

  9
$PUCSORG
 10
0.0
 20
0.0
 30
0.0
  9
$PUCSXDIR
 10
1.0
 20
0.0
 30
0.0
  9
$PUCSYDIR
 10
0.0
 20
1.0
 30
0.0
  9
$PUCSORTHOREF
  2

  9
$PUCSORTHOVIEW
 70
0
  9
$PUCSORGTOP
 10
0.0
 20
0.0
 30
0.0
  9
$PUCSORGBOTTOM
 10
0.0
 20
0.0
 30
0.0
  9
$PUCSORGLEFT
 10
0.0
 20
0.0
 30
0.0
  9
$PUCSORGRIGHT
 10
0.0
 20
0.0
 30
0.0
  9
$PUCSORGFRONT
 10
0.0
 20
0.0
 30
0.0
  9
$PUCSORGBACK
 10
0.0
 20
0.0
 30
0.0
  9
$USERI1
 70
0
  9
$USERI2
 70
0
  9
$USERI3
 70
0
  9
$USERI4
 70
0
  9
$USERI5
 70
0
  9
$USERR1
 40
0.0
  9
$USERR2
 40
0.0
  9
$USERR3
 40
0.0
  9
$USERR4
 40
0.0
  9
$USERR5
 40
0.0
  9
$WORLDVIEW
 70
1
  9
$SHADEDGE
 70
3
  9
$SHADEDIF
 70
70
  9
$TILEMODE
 70
1
  9
$MAXACTVP
 70
64
  9
$PINSBASE
 10
0.0
 20
0.0
 30
0.0
  9
$PLIMCHECK
 70
0
  9
$PEXTMIN
 10
1e+20
 20
1e+20
 30
1e+20
  9
$PEXTMAX
 10
-1e+20
 20
-1e+20
 30
-1e+20
  9
$PLIMMIN
 10
0.0
 20
0.0
  9
$PLIMMAX
 10
420.0
 20
297.0
  9
$UNITMODE
 70
0
  9
$VISRETAIN
 70
1
  9
$PLINEGEN
 70
0
  9
$PSLTSCALE
 70
1
  9
$TREEDEPTH
 70
3020
  9
$CMLSTYLE
  2
Standard
  9
$CMLJUST
 70
0
  9
$CMLSCALE
 40
20.0
  9
$PROXYGRAPHICS
 70
1
  9
$MEASUREMENT
 70
1
  9
$CELWEIGHT
370
-1
  9
$ENDCAPS
280
0
  9
$JOINSTYLE
280
0
  9
$LWDISPLAY
290
0
  9
$INSUNITS
 70
6
  9
$HYPERLINKBASE
  1

  9
$STYLESHEET
  1

  9
$XEDIT
290
1
  9
$CEPSNTYPE
380
0
  9
$PSTYLEMODE
290
1
  9
$FINGERPRINTGUID
  2
{F495A3CA-4CF7-4E6E-B1BC-0E271383BF69}
  9
$VERSIONGUID
  2
{728074FD-980F-40F1-94C4-804BAD7C2B01}
  9
$EXTNAMES
290
1
  9
$PSVPSCALE
 40
0.0
  9
$OLESTARTUP
290
0
  9
$SORTENTS
280
127
  9
$INDEXCTL
280
0
  9
$HIDETEXT
280
1
  9
$XCLIPFRAME
280
1
  9
$HALOGAP
280
0
  9
$OBSCOLOR
 70
257
  9
$OBSLTYPE
280
0
  9
$INTERSECTIONDISPLAY
280
0
  9
$INTERSECTIONCOLOR
 70
257
  9
$DIMASSOC
280
2
  9
$PROJECTNAME
  1

  9
$CAMERADISPLAY
290
0
  9
$LENSLENGTH
 40
50.0
  9
$CAMERAHEIGHT
 40
0.0
  9
$STEPSPERSEC
 40
24.0
  9
$STEPSIZE
 40
100.0
  9
$3DDWFPREC
 40
2.0
  9
$PSOLWIDTH
 40
0.005
  9
$PSOLHEIGHT
 40
0.08
  9
$LOFTANG1
 40
1.570796326795
  9
$LOFTANG2
 40
1.570796326795
  9
$LOFTMAG1
 40
0.0
  9
$LOFTMAG2
 40
0.0
  9
$LOFTPARAM
 70
7
  9
$LOFTNORMALS
280
1
  9
$LATITUDE
 40
37.795
  9
$LONGITUDE
 40
-122.394
  9
$NORTHDIRECTION
 40
0.0
  9
$TIMEZONE
 70
-8000
  9
$LIGHTGLYPHDISPLAY
280
1
  9
$TILEMODELIGHTSYNCH
280
1
  9
$CMATERIAL
347
20
  9
$SOLIDHIST
280
0
  9
$SHOWHIST
280
1
  9
$DWFFRAME
280
2
  9
$DGNFRAME
280
2
  9
$REALWORLDSCALE
290
1
  9
$INTERFERECOLOR
 62
256
  9
$CSHADOW
280
0
  9
$SHADOWPLANELOCATION
 40
0.0
  0
ENDSEC
  0
SECTION
  2
CLASSES
  0
CLASS
  1
ACDBDICTIONARYWDFLT
  2
AcDbDictionaryWithDefault
  3
ObjectDBX Classes
 90
0
 91
0
280
0
281
0
  0
CLASS
  1
SUN
  2
AcDbSun
  3
SCENEOE
 90
1153
 91
0
280
0
281
0
  0
CLASS
  1
VISUALSTYLE
  2
AcDbVisualStyle
  3
ObjectDBX Classes
 90
4095
 91
0
280
0
281
0
  0
CLASS
  1
MATERIAL
  2
AcDbMaterial
  3
ObjectDBX Classes
 90
1153
 91
0
280
0
281
0
  0
CLASS
  1
SCALE
  2
AcDbScale
  3
ObjectDBX Classes
 90
1153
 91
0
280
0
281
0
  0
CLASS
  1
TABLESTYLE
  2
AcDbTableStyle
  3
ObjectDBX Classes
 90
4095
 91
0
280
0
281
0
  0
CLASS
  1
MLEADERSTYLE
  2
AcDbMLeaderStyle
  3
ACDB_MLEADERSTYLE_CLASS
 90
4095
 91
0
280
0
281
0
  0
CLASS
  1
DICTIONARYVAR
  2
AcDbDictionaryVar
  3
ObjectDBX Classes
 90
0
 91
0
280
0
281
0
  0
CLASS
  1
CELLSTYLEMAP
  2
AcDbCellStyleMap
  3
ObjectDBX Classes
 90
1152
 91
0
280
0
281
0
  0
CLASS
  1
MENTALRAYRENDERSETTINGS
  2
AcDbMentalRayRenderSettings
  3
SCENEOE
 90
1024
 91
0
280
0
281
0
  0
CLASS
  1
ACDBDETAILVIEWSTYLE
  2
AcDbDetailViewStyle
  3
ObjectDBX Classes
 90
1025
 91
0
280
0
281
0
  0
CLASS
  1
ACDBSECTIONVIEWSTYLE
  2
AcDbSectionViewStyle
  3
ObjectDBX Classes
 90
1025
 91
0
280
0
281
0
  0
CLASS
  1
RASTERVARIABLES
  2
AcDbRasterVariables
  3
ISM
 90
0
 91
0
280
0
281
0
  0
CLASS
  1
LAYOUT
  2
AcDbLayout
  3
ObjectDBX Classes
 90
0
 91
0
280
0
281
0
  0
CLASS
  1
ACDBPLACEHOLDER
  2
AcDbPlaceHolder
  3
ObjectDBX Classes
 90
0
 91
0
280
0
281
0
  0
ENDSEC
  0
SECTION
  2
TABLES
  0
TABLE
  2
VPORT
  5
8
330
0
100
AcDbSymbolTable
 70
1
  0
VPORT
  5
23
330
8
100
AcDbSymbolTableRecord
100
AcDbViewportTableRecord
  2
*Active
 70
0
 10
0.0
 20
0.0
 11
1.0
 21
1.0
 12
0.0
 22
0.0
 13
0.0
 23
0.0
 14
0.5
 24
0.5
 15
0.5
 25
0.5
 16
0.0
 26
0.0
 36
1.0
 17
0.0
 27
0.0
 37
0.0
 40
1000.0
 41
1.34
 42
50.0
 43
0.0
 44
0.0
 50
0.0
 51
0.0
 71
0
 72
1000
 73
1
 74
3
 75
0
 76
0
 77
0
 78
0
281
0
 65
0
146
0.0
  0
ENDTAB
  0
TABLE
  2
LTYPE
  5
2
330
0
100
AcDbSymbolTable
 70
3
  0
LTYPE
  5
24
330
2
100
AcDbSymbolTableRecord
100
AcDbLinetypeTableRecord
  2
ByBlock
 70
0
  3

 72
65
 73
0
 40
0.0
  0
LTYPE
  5
25
330
2
100
AcDbSymbolTableRecord
100
AcDbLinetypeTableRecord
  2
ByLayer
 70
0
  3

 72
65
 73
0
 40
0.0
  0
LTYPE
  5
26
330
2
100
AcDbSymbolTableRecord
100
AcDbLinetypeTableRecord
  2
Continuous
 70
0
  3

 72
65
 73
0
 40
0.0
  0
ENDTAB
  0
TABLE
  2
LAYER
  5
1
330
0
100
AcDbSymbolTable
 70
7
  0
LAYER
  5
27
330
1
100
AcDbSymbolTableRecord
100
AcDbLayerTableRecord
  2
0
 70
0
 62
7
  6
Continuous
370
-3
390
13
347
21
  0
LAYER
  5
28
330
1
100
AcDbSymbolTableRecord
100
AcDbLayerTableRecord
  2
Defpoints
 70
0
 62
7
  6
Continuous
290
0
370
-3
390
13
347
21
  0
LAYER
  5
55
330
1
100
AcDbSymbolTableRecord
100
AcDbLayerTableRecord
  2
KOP_KERTAS
 70
0
 62
8
  6
Continuous
370
-3
390
13
347
21
  0
LAYER
  5
56
330
1
100
AcDbSymbolTableRecord
100
AcDbLayerTableRecord
  2
TEXT
 70
0
 62
7
  6
Continuous
370
-3
390
13
347
21
  0
LAYER
  5
58
330
1
100
AcDbSymbolTableRecord
100
AcDbLayerTableRecord
  2
GARIS_TABLE
 70
0
 62
3
  6
Continuous
370
-3
390
13
347
21
  0
LAYER
  5
59
330
1
100
AcDbSymbolTableRecord
100
AcDbLayerTableRecord
  2
GARIS_TANAH
 70
0
 62
5
  6
Continuous
370
-3
390
13
347
21
  0
LAYER
  5
5A
330
1
100
AcDbSymbolTableRecord
100
AcDbLayerTableRecord
  2
GARIS_ELEV
 70
0
 62
6
  6
Continuous
370
-3
390
13
347
21
  0
ENDTAB
  0
TABLE
  2
STYLE
  5
5
330
0
100
AcDbSymbolTable
 70
2
  0
STYLE
  5
29
330
5
100
AcDbSymbolTableRecord
100
AcDbTextStyleTableRecord
  2
Standard
 70
0
 40
0.0
 41
1.0
 50
0.0
 71
0
 42
2.5
  3
txt
  4

  0
STYLE
  5
57
330
5
100
AcDbSymbolTableRecord
100
AcDbTextStyleTableRecord
  2
ARIAL
 70
0
 40
0.0
 41
1.0
 50
0.0
 71
0
 42
2.5
  3
arial.ttf
  4

  0
ENDTAB
  0
TABLE
  2
VIEW
  5
7
330
0
100
AcDbSymbolTable
 70
0
  0
ENDTAB
  0
TABLE
  2
UCS
  5
6
330
0
100
AcDbSymbolTable
 70
0
  0
ENDTAB
  0
TABLE
  2
APPID
  5
3
330
0
100
AcDbSymbolTable
 70
3
  0
APPID
  5
2A
330
3
100
AcDbSymbolTableRecord
100
AcDbRegAppTableRecord
  2
ACAD
 70
0
  0
APPID
  5
2AE
330
3
100
AcDbSymbolTableRecord
100
AcDbRegAppTableRecord
  2
HATCHBACKGROUNDCOLOR
 70
0
  0
APPID
  5
2AF
330
3
100
AcDbSymbolTableRecord
100
AcDbRegAppTableRecord
  2
EZDXF
 70
0
  0
ENDTAB
  0
TABLE
  2
DIMSTYLE
  5
4
330
0
100
AcDbSymbolTable
 70
1
100
AcDbDimStyleTable
  0
DIMSTYLE
105
2B
330
4
100
AcDbSymbolTableRecord
100
AcDbDimStyleTableRecord
  2
Standard
 70
0
 40
1.0
 41
2.5
 42
0.625
 43
3.75
 44
1.25
 45
0.0
 46
0.0
 47
0.0
 48
0.0
 49
2.5
140
2.5
141
2.5
142
0.0
143
0.03937007874
144
1.0
145
0.0
146
1.0
147
0.625
148
0.0
 69
0
 70
0
 71
0
 72
0
 73
0
 74
0
 75
0
 76
0
 77
1
 78
8
 79
3
170
0
171
3
172
1
173
0
174
0
175
0
176
0
177
0
178
0
179
2
271
2
272
2
273
2
274
3
275
0
276
0
277
2
278
44
279
0
280
0
281
0
282
0
283
0
284
8
285
0
286
0
288
0
289
3
290
0
371
-2
372
-2
  0
ENDTAB
  0
TABLE
  2
BLOCK_RECORD
  5
9
330
0
100
AcDbSymbolTable
 70
16
  0
BLOCK_RECORD
  5
17
330
9
100
AcDbSymbolTableRecord
100
AcDbBlockTableRecord
  2
*Model_Space
340
1A
 70
0
280
1
281
0
  0
BLOCK_RECORD
  5
1B
330
9
100
AcDbSymbolTableRecord
100
AcDbBlockTableRecord
  2
*Paper_Space
340
1E
 70
0
280
1
281
0
  0
BLOCK_RECORD
  5
2F
330
9
100
AcDbSymbolTableRecord
100
AcDbBlockTableRecord
  2
A1
340
0
 70
0
280
1
281
0
  0
BLOCK_RECORD
  5
5B
330
9
100
AcDbSymbolTableRecord
100
AcDbBlockTableRecord
  2
DATA_SURVEY_1
340
0
 70
0
280
1
281
0
  0
BLOCK_RECORD
  5
A6
330
9
100
AcDbSymbolTableRecord
100
AcDbBlockTableRecord
  2
DATA_SURVEY_2
340
0
 70
0
280
1
281
0
  0
BLOCK_RECORD
  5
D9
330
9
100
AcDbSymbolTableRecord
100
AcDbBlockTableRecord
  2
DATA_SURVEY_3
340
0
 70
0
280
1
281
0
  0
BLOCK_RECORD
  5
130
330
9
100
AcDbSymbolTableRecord
100
AcDbBlockTableRecord
  2
DATA_SURVEY_4
340
0
 70
0
280
1
281
0
  0
BLOCK_RECORD
  5
17B
330
9
100
AcDbSymbolTableRecord
100
AcDbBlockTableRecord
  2
DATA_SURVEY_5
340
0
 70
0
280
1
281
0
  0
BLOCK_RECORD
  5
1AE
330
9
100
AcDbSymbolTableRecord
100
AcDbBlockTableRecord
  2
DATA_SURVEY_6
340
0
 70
0
280
1
281
0
  0
BLOCK_RECORD
  5
1ED
330
9
100
AcDbSymbolTableRecord
100
AcDbBlockTableRecord
  2
DATA_SURVEY_7
340
0
 70
0
280
1
281
0
  0
BLOCK_RECORD
  5
238
330
9
100
AcDbSymbolTableRecord
100
AcDbBlockTableRecord
  2
DATA_SURVEY_8
340
0
 70
0
280
1
281
0
  0
BLOCK_RECORD
  5
283
330
9
100
AcDbSymbolTableRecord
100
AcDbBlockTableRecord
  2
horizontal_1
340
0
 70
0
280
1
281
0
  0
BLOCK_RECORD
  5
28C
330
9
100
AcDbSymbolTableRecord
100
AcDbBlockTableRecord
  2
horizontal_2
340
0
 70
0
280
1
281
0
  0
BLOCK_RECORD
  5
295
330
9
100
AcDbSymbolTableRecord
100
AcDbBlockTableRecord
  2
horizontal_3
340
0
 70
0
280
1
281
0
  0
BLOCK_RECORD
  5
29C
330
9
100
AcDbSymbolTableRecord
100
AcDbBlockTableRecord
  2
keseluruhan gambar1
340
0
 70
0
280
1
281
0
  0
BLOCK_RECORD
  5
29F
330
9
100
AcDbSymbolTableRecord
100
AcDbBlockTableRecord
  2
keseluruhan data1
340
0
 70
0
280
1
281
0
  0
ENDTAB
  0
ENDSEC
  0
SECTION
  2
BLOCKS
  0
BLOCK
  5
18
330
17
100
AcDbEntity
  8
0
100
AcDbBlockBegin
  2
*Model_Space
 70
0
 10
0.0
 20
0.0
 30
0.0
  3
*Model_Space
  1

  0
ENDBLK
  5
19
330
17
100
AcDbEntity
  8
0
100
AcDbBlockEnd
  0
BLOCK
  5
1C
330
1B
100
AcDbEntity
  8
0
100
AcDbBlockBegin
  2
*Paper_Space
 70
0
 10
0.0
 20
0.0
 30
0.0
  3
*Paper_Space
  1

  0
ENDBLK
  5
1D
330
1B
100
AcDbEntity
  8
0
100
AcDbBlockEnd
  0
BLOCK
  5
30
330
2F
100
AcDbEntity
  8
0
100
AcDbBlockBegin
  2
A1
 70
0
 10
420.5
 20
297.0
 30
0.0
  3
A1
  1

  0
LWPOLYLINE
  5
32
330
2F
100
AcDbEntity
  8
KOP_KERTAS
100
AcDbPolyline
 90
4
 70
1
 10
0.0
 20
0.0
 10
841.0
 20
0.0
 10
841.0
 20
594.0
 10
0.0
 20
594.0
  0
LWPOLYLINE
  5
33
330
2F
100
AcDbEntity
  8
KOP_KERTAS
100
AcDbPolyline
 90
4
 70
1
 10
10.0
 20
5.0
 10
836.0
 20
5.0
 10
836.0
 20
589.0
 10
10.0
 20
589.0
  0
LINE
  5
34
330
2F
100
AcDbEntity
  8
KOP_KERTAS
100
AcDbLine
 10
736.0
 20
10.0
 30
0.0
 11
736.0
 21
589.0
 31
0.0
  0
LINE
  5
35
330
2F
100
AcDbEntity
  8
KOP_KERTAS
100
AcDbLine
 10
736.0
 20
100.0
 30
0.0
 11
836.0
 21
100.0
 31
0.0
  0
LINE
  5
36
330
2F
100
AcDbEntity
  8
KOP_KERTAS
100
AcDbLine
 10
736.0
 20
115.0
 30
0.0
 11
836.0
 21
115.0
 31
0.0
  0
LINE
  5
37
330
2F
100
AcDbEntity
  8
KOP_KERTAS
100
AcDbLine
 10
736.0
 20
190.0
 30
0.0
 11
836.0
 21
190.0
 31
0.0
  0
LINE
  5
38
330
2F
100
AcDbEntity
  8
KOP_KERTAS
100
AcDbLine
 10
736.0
 20
205.0
 30
0.0
 11
836.0
 21
205.0
 31
0.0
  0
LINE
  5
39
330
2F
100
AcDbEntity
  8
KOP_KERTAS
100
AcDbLine
 10
736.0
 20
280.0
 30
0.0
 11
836.0
 21
280.0
 31
0.0
  0
LINE
  5
3A
330
2F
100
AcDbEntity
  8
KOP_KERTAS
100
AcDbLine
 10
736.0
 20
295.0
 30
0.0
 11
836.0
 21
295.0
 31
0.0
  0
LINE
  5
3B
330
2F
100
AcDbEntity
  8
KOP_KERTAS
100
AcDbLine
 10
736.0
 20
370.0
 30
0.0
 11
836.0
 21
370.0
 31
0.0
  0
LINE
  5
3C
330
2F
100
AcDbEntity
  8
KOP_KERTAS
100
AcDbLine
 10
736.0
 20
385.0
 30
0.0
 11
836.0
 21
385.0
 31
0.0
  0
LINE
  5
3D
330
2F
100
AcDbEntity
  8
KOP_KERTAS
100
AcDbLine
 10
736.0
 20
460.0
 30
0.0
 11
836.0
 21
460.0
 31
0.0
  0
LINE
  5
3E
330
2F
100
AcDbEntity
  8
KOP_KERTAS
100
AcDbLine
 10
736.0
 20
475.0
 30
0.0
 11
836.0
 21
475.0
 31
0.0
  0
TEXT
  5
3F
330
2F
100
AcDbEntity
  8
TEKS_KOP
100
AcDbText
 10
786.0
 20
560.0
 30
0.0
 40
5.0
  1
PEMERINTAH KOTA
  7
ARIAL
 72
1
 11
786.0
 21
560.0
 31
0.0
100
AcDbText
 73
2
  0
TEXT
  5
40
330
2F
100
AcDbEntity
  8
TEKS_KOP
100
AcDbText
 10
786.0
 20
532.0
 30
0.0
 40
5.0
  1
BANDUNG DINAS
  7
ARIAL
 72
1
 11
786.0
 21
532.0
 31
0.0
100
AcDbText
 73
2
  0
TEXT
  5
41
330
2F
100
AcDbEntity
  8
TEKS_KOP
100
AcDbText
 10
786.0
 20
504.0
 30
0.0
 40
5.0
  1
BINA MARGA
  7
ARIAL
 72
1
 11
786.0
 21
504.0
 31
0.0
100
AcDbText
 73
2
  0
TEXT
  5
42
330
2F
100
AcDbEntity
  8
TEKS_KOP
100
AcDbText
 10
786.0
 20
467.0
 30
0.0
 40
3.5
  1
KONSULTAN PERENCANA:
  7
ARIAL
 72
1
 11
786.0
 21
467.0
 31
0.0
100
AcDbText
 73
2
  0
TEXT
  5
43
330
2F
100
AcDbEntity
  8
TEKS_KOP
100
AcDbText
 10
786.0
 20
442.0
 30
0.0
 40
5.0
  1
PT FUJICON 
  7
ARIAL
 72
1
 11
786.0
 21
442.0
 31
0.0
100
AcDbText
 73
2
  0
TEXT
  5
44
330
2F
100
AcDbEntity
  8
TEKS_KOP
100
AcDbText
 10
786.0
 20
417.0
 30
0.0
 40
5.0
  1
PRIANGAN PERDANA
  7
ARIAL
 72
1
 11
786.0
 21
417.0
 31
0.0
100
AcDbText
 73
2
  0
TEXT
  5
45
330
2F
100
AcDbEntity
  8
TEKS_KOP
100
AcDbText
 10
786.0
 20
377.0
 30
0.0
 40
3.5
  1
NAMA PROYEK:
  7
ARIAL
 72
1
 11
786.0
 21
377.0
 31
0.0
100
AcDbText
 73
2
  0
TEXT
  5
46
330
2F
100
AcDbEntity
  8
TEKS_KOP
100
AcDbText
 10
786.0
 20
350.0
 30
0.0
 40
6.0
  1
ENGINE CIVILIX
  7
ARIAL
 72
1
 11
786.0
 21
350.0
 31
0.0
100
AcDbText
 73
2
  0
TEXT
  5
47
330
2F
100
AcDbEntity
  8
TEKS_KOP
100
AcDbText
 10
786.0
 20
325.0
 30
0.0
 40
4.5
  1
AUTO-GENERATE LS
  7
ARIAL
 72
1
 11
786.0
 21
325.0
 31
0.0
100
AcDbText
 73
2
  0
TEXT
  5
48
330
2F
100
AcDbEntity
  8
TEKS_KOP
100
AcDbText
 10
786.0
 20
287.0
 30
0.0
 40
3.5
  1
JUDUL GAMBAR:
  7
ARIAL
 72
1
 11
786.0
 21
287.0
 31
0.0
100
AcDbText
 73
2
  0
TEXT
  5
49
330
2F
100
AcDbEntity
  8
TEKS_KOP
100
AcDbText
 10
786.0
 20
257.0
 30
0.0
 40
7.0
  1
LONG SECTION
  7
ARIAL
 72
1
 11
786.0
 21
257.0
 31
0.0
100
AcDbText
 73
2
  0
TEXT
  5
4A
330
2F
100
AcDbEntity
  8
TEKS_KOP
100
AcDbText
 10
786.0
 20
197.0
 30
0.0
 40
3.5
  1
SKALA:
  7
ARIAL
 72
1
 11
786.0
 21
197.0
 31
0.0
100
AcDbText
 73
2
  0
TEXT
  5
4B
330
2F
100
AcDbEntity
  8
TEKS_KOP
100
AcDbText
 10
786.0
 20
173.0
 30
0.0
 40
3.5
  1
SKALA HORIZONTAL = 1:1000
  7
ARIAL
 72
1
 11
786.0
 21
173.0
 31
0.0
100
AcDbText
 73
2
  0
TEXT
  5
4C
330
2F
100
AcDbEntity
  8
TEKS_KOP
100
AcDbText
 10
786.0
 20
153.0
 30
0.0
 40
3.5
  1
SKALA VERTIKAL = 1:100
  7
ARIAL
 72
1
 11
786.0
 21
153.0
 31
0.0
100
AcDbText
 73
2
  0
TEXT
  5
4D
330
2F
100
AcDbEntity
  8
TEKS_KOP
100
AcDbText
 10
786.0
 20
133.0
 30
0.0
 40
3.5
  1
ELEVASI DATUM = ...
  7
ARIAL
 72
1
 11
786.0
 21
133.0
 31
0.0
100
AcDbText
 73
2
  0
LINE
  5
4E
330
2F
100
AcDbEntity
  8
KOP_KERTAS
100
AcDbLine
 10
786.0
 20
10.0
 30
0.0
 11
786.0
 21
100.0
 31
0.0
  0
TEXT
  5
4F
330
2F
100
AcDbEntity
  8
TEKS_KOP
100
AcDbText
 10
761.0
 20
107.0
 30
0.0
 40
3.0
  1
DIGAMBAR OLEH:
  7
ARIAL
 72
1
 11
761.0
 21
107.0
 31
0.0
100
AcDbText
 73
2
  0
TEXT
  5
50
330
2F
100
AcDbEntity
  8
TEKS_KOP
100
AcDbText
 10
761.0
 20
82.0
 30
0.0
 40
5.0
  1
ISMAIL
  7
ARIAL
 72
1
 11
761.0
 21
82.0
 31
0.0
100
AcDbText
 73
2
  0
TEXT
  5
51
330
2F
100
AcDbEntity
  8
TEKS_KOP
100
AcDbText
 10
761.0
 20
57.0
 30
0.0
 40
3.0
  1
Drafter DPIB
  7
ARIAL
 72
1
 11
761.0
 21
57.0
 31
0.0
100
AcDbText
 73
2
  0
TEXT
  5
52
330
2F
100
AcDbEntity
  8
TEKS_KOP
100
AcDbText
 10
811.0
 20
107.0
 30
0.0
 40
3.0
  1
NO. GAMBAR
  7
ARIAL
 72
1
 11
811.0
 21
107.0
 31
0.0
100
AcDbText
 73
2
  0
TEXT
  5
53
330
2F
100
AcDbEntity
  8
TEKS_KOP
100
AcDbText
 10
811.0
 20
82.0
 30
0.0
 40
7.0
  1
LS-01
  7
ARIAL
 72
1
 11
811.0
 21
82.0
 31
0.0
100
AcDbText
 73
2
  0
TEXT
  5
54
330
2F
100
AcDbEntity
  8
TEKS_KOP
100
AcDbText
 10
811.0
 20
57.0
 30
0.0
 40
3.0
  1
LEMBAR 1 / 1
  7
ARIAL
 72
1
 11
811.0
 21
57.0
 31
0.0
100
AcDbText
 73
2
  0
ENDBLK
  5
31
330
2F
100
AcDbEntity
  8
0
100
AcDbBlockEnd
  0
BLOCK
  5
5C
330
5B
100
AcDbEntity
  8
0
100
AcDbBlockBegin
  2
DATA_SURVEY_1
 70
0
 10
0.0
 20
-42.72169167803547
 30
0.0
  3
DATA_SURVEY_1
  1

  0
TEXT
  5
5E
330
5B
100
AcDbEntity
  8
TEXT
100
AcDbText
 10
2.0
 20
-7.5
 30
0.0
 40
2.5
  1
JARAK (M)
  7
ARIAL
 11
2.0
 21
-7.5
 31
0.0
100
AcDbText
 73
2
  0
TEXT
  5
5F
330
5B
100
AcDbEntity
  8
TEXT
100
AcDbText
 10
2.0
 20
-15.0
 30
0.0
 40
2.5
  1
ELEVASI (M)
  7
ARIAL
 11
2.0
 21
-15.0
 31
0.0
100
AcDbText
 73
2
  0
TEXT
  5
60
330
5B
100
AcDbEntity
  8
TEXT
100
AcDbText
 10
2.0
 20
-25.0
 30
0.0
 40
2.5
  1
JARAK K (M)
  7
ARIAL
 11
2.0
 21
-25.0
 31
0.0
100
AcDbText
 73
2
  0
TEXT
  5
61
330
5B
100
AcDbEntity
  8
TEXT
100
AcDbText
 10
2.0
 20
-2.5
 30
0.0
 40
2.5
  1
TITIK
  7
ARIAL
 11
2.0
 21
-2.5
 31
0.0
100
AcDbText
 73
2
  0
TEXT
  5
62
330
5B
100
AcDbEntity
  8
TEXT
100
AcDbText
 10
2.0
 20
2.5
 30
0.0
 40
2.5
  1
DL = 48M
  7
ARIAL
 11
2.0
 21
2.5
 31
0.0
100
AcDbText
 73
2
  0
LINE
  5
63
330
5B
100
AcDbEntity
  8
GARIS_TABLE
100
AcDbLine
 10
0.0
 20
0.0
 30
0.0
 11
32.0
 21
0.0
 31
0.0
  0
LINE
  5
64
330
5B
100
AcDbEntity
  8
GARIS_TABLE
100
AcDbLine
 10
0.0
 20
-5.0
 30
0.0
 11
32.0
 21
-5.0
 31
0.0
  0
LINE
  5
65
330
5B
100
AcDbEntity
  8
GARIS_TABLE
100
AcDbLine
 10
0.0
 20
-10.0
 30
0.0
 11
32.0
 21
-10.0
 31
0.0
  0
LINE
  5
66
330
5B
100
AcDbEntity
  8
GARIS_TABLE
100
AcDbLine
 10
0.0
 20
-20.0
 30
0.0
 11
32.0
 21
-20.0
 31
0.0
  0
LINE
  5
67
330
5B
100
AcDbEntity
  8
GARIS_TABLE
100
AcDbLine
 10
0.0
 20
-30.0
 30
0.0
 11
32.0
 21
-30.0
 31
0.0
  0
LINE
  5
68
330
5B
100
AcDbEntity
  8
GARIS_TABLE
100
AcDbLine
 10
0.0
 20
0.0
 30
0.0
 11
0.0
 21
-30.0
 31
0.0
  0
LINE
  5
69
330
5B
100
AcDbEntity
  8
GARIS_TABLE
100
AcDbLine
 10
29.0
 20
0.0
 30
0.0
 11
29.0
 21
-30.0
 31
0.0
  0
TEXT
  5
6A
330
5B
100
AcDbEntity
  8
TEXT
100
AcDbText
 10
32.0
 20
-2.5
 30
0.0
 40
2.0
  1
L2
  7
ARIAL
 72
1
 11
32.0
 21
-2.5
 31
0.0
100
AcDbText
 73
2
  0
TEXT
  5
6B
330
5B
100
AcDbEntity
  8
TEXT
 62
4
100
AcDbText
 10
32.0
 20
-15.0
 30
0.0
 40
2.0
  1
50.2
 50
90.0
  7
ARIAL
 72
1
 11
32.0
 21
-15.0
 31
0.0
100
AcDbText
 73
2
  0
TEXT
  5
6C
330
5B
100
AcDbEntity
  8
TEXT
 62
4
100
AcDbText
 10
32.0
 20
-25.0
 30
0.0
 40
2.0
  1
-6.00
 50
90.0
  7
ARIAL
 72
1
 11
32.0
 21
-25.0
 31
0.0
100
AcDbText
 73
2
  0
LINE
  5
6D
330
5B
100
AcDbEntity
  8
GARIS_TABLE
100
AcDbLine
 10
32.0
 20
-5.0
 30
0.0
 11
32.0
 21
-10.0
 31
0.0
  0
LINE
  5
6E
330
5B
100
AcDbEntity
  8
GARIS_ELEV
100
AcDbLine
 10
32.0
 20
0.0
 30
0.0
 11
32.0
 21
2.0
 31
0.0
  0
LINE
  5
6F
330
5B
100
AcDbEntity
  8
GARIS_TABLE
100
AcDbLine
 10
32.0
 20
0.0
 30
0.0
 11
57.0
 21
0.0
 31
0.0
  0
LINE
  5
70
330
5B
100
AcDbEntity
  8
GARIS_TABLE
100
AcDbLine
 10
32.0
 20
-5.0
 30
0.0
 11
57.0
 21
-5.0
 31
0.0
  0
LINE
  5
71
330
5B
100
AcDbEntity
  8
GARIS_TABLE
100
AcDbLine
 10
32.0
 20
-10.0
 30
0.0
 11
57.0
 21
-10.0
 31
0.0
  0
LINE
  5
72
330
5B
100
AcDbEntity
  8
GARIS_TABLE
100
AcDbLine
 10
32.0
 20
-20.0
 30
0.0
 11
57.0
 21
-20.0
 31
0.0
  0
LINE
  5
73
330
5B
100
AcDbEntity
  8
GARIS_TABLE
100
AcDbLine
 10
32.0
 20
-30.0
 30
0.0
 11
57.0
 21
-30.0
 31
0.0
  0
TEXT
  5
74
330
5B
100
AcDbEntity
  8
TEXT
 62
4
100
AcDbText
 10
44.5
 20
-7.5
 30
0.0
 40
2.0
  1
2.50
  7
ARIAL
 72
1
 11
44.5
 21
-7.5
 31
0.0
100
AcDbText
 73
2
  0
LINE
  5
75
330
5B
100
AcDbEntity
  8
GARIS_ELEV
100
AcDbLine
 10
32.0
 20
2.0
 30
0.0
 11
57.0
 21
4.5
 31
0.0
  0
TEXT
  5
76
330
5B
100
AcDbEntity
  8
TEXT
100
AcDbText
 10
57.0
 20
-2.5
 30
0.0
 40
2.0
  1
L1
  7
ARIAL
 72
1
 11
57.0
 21
-2.5
 31
0.0
100
AcDbText
 73
2
  0
TEXT
  5
77
330
5B
100
AcDbEntity
  8
TEXT
 62
4
100
AcDbText
 10
57.0
 20
-15.0
 30
0.0
 40
2.0
  1
50.45
 50
90.0
  7
ARIAL
 72
1
 11
57.0
 21
-15.0
 31
0.0
100
AcDbText
 73
2
  0
TEXT
  5
78
330
5B
100
AcDbEntity
  8
TEXT
 62
4
100
AcDbText
 10
57.0
 20
-25.0
 30
0.0
 40
2.0
  1
-3.50
 50
90.0
  7
ARIAL
 72
1
 11
57.0
 21
-25.0
 31
0.0
100
AcDbText
 73
2
  0
LINE
  5
79
330
5B
100
AcDbEntity
  8
GARIS_TABLE
100
AcDbLine
 10
57.0
 20
-5.0
 30
0.0
 11
57.0
 21
-10.0
 31
0.0
  0
LINE
  5
7A
330
5B
100
AcDbEntity
  8
GARIS_ELEV
100
AcDbLine
 10
57.0
 20
0.0
 30
0.0
 11
57.0
 21
4.5
 31
0.0
  0
LINE
  5
7B
330
5B
100
AcDbEntity
  8
GARIS_TABLE
100
AcDbLine
 10
57.0
 20
0.0
 30
0.0
 11
92.0
 21
0.0
 31
0.0
  0
LINE
  5
7C
330
5B
100
AcDbEntity
  8
GARIS_TABLE
100
AcDbLine
 10
57.0
 20
-5.0
 30
0.0
 11
92.0
 21
-5.0
 31
0.0
  0
LINE
  5
7D
330
5B
100
AcDbEntity
  8
GARIS_TABLE
100
AcDbLine
 10
57.0
 20
-10.0
 30
0.0
 11
92.0
 21
-10.0
 31
0.0
  0
LINE
  5
7E
330
5B
100
AcDbEntity
  8
GARIS_TABLE
100
AcDbLine
 10
57.0
 20
-20.0
 30
0.0
 11
92.0
 21
-20.0
 31
0.0
  0
LINE
  5
7F
330
5B
100
AcDbEntity
  8
GARIS_TABLE
100
AcDbLine
 10
57.0
 20
-30.0
 30
0.0
 11
92.0
 21
-30.0
 31
0.0
  0
TEXT
  5
80
330
5B
100
AcDbEntity
  8
TEXT
 62
4
100
AcDbText
 10
74.5
 20
-7.5
 30
0.0
 40
2.0
  1
3.50
  7
ARIAL
 72
1
 11
74.5
 21
-7.5
 31
0.0
100
AcDbText
 73
2
  0
LINE
  5
81
330
5B
100
AcDbEntity
  8
GARIS_ELEV
100
AcDbLine
 10
57.0
 20
4.5
 30
0.0
 11
92.0
 21
6.0
 31
0.0
  0
TEXT
  5
82
330
5B
100
AcDbEntity
  8
TEXT
100
AcDbText
 10
92.0
 20
-2.5
 30
0.0
 40
2.0
  1
STA 1
  7
ARIAL
 72
1
 11
92.0
 21
-2.5
 31
0.0
100
AcDbText
 73
2
  0
TEXT
  5
83
330
5B
100
AcDbEntity
  8
TEXT
 62
4
100
AcDbText
 10
92.0
 20
-15.0
 30
0.0
 40
2.0
  1
50.6
 50
90.0
  7
ARIAL
 72
1
 11
92.0
 21
-15.0
 31
0.0
100
AcDbText
 73
2
  0
TEXT
  5
84
330
5B
100
AcDbEntity
  8
TEXT
 62
4
100
AcDbText
 10
92.0
 20
-25.0
 30
0.0
 40
2.0
  1
0.00
 50
90.0
  7
ARIAL
 72
1
 11
92.0
 21
-25.0
 31
0.0
100
AcDbText
 73
2
  0
LINE
  5
85
330
5B
100
AcDbEntity
  8
GARIS_TABLE
100
AcDbLine
 10
92.0
 20
-5.0
 30
0.0
 11
92.0
 21
-10.0
 31
0.0
  0
LINE
  5
86
330
5B
100
AcDbEntity
  8
GARIS_ELEV
100
AcDbLine
 10
92.0
 20
0.0
 30
0.0
 11
92.0
 21
6.0
 31
0.0
  0
LINE
  5
87
330
5B
100
AcDbEntity
  8
GARIS_TABLE
100
AcDbLine
 10
92.0
 20
0.0
 30
0.0
 11
127.0
 21
0.0
 31
0.0
  0
LINE
  5
88
330
5B
100
AcDbEntity
  8
GARIS_TABLE
100
AcDbLine
 10
92.0
 20
-5.0
 30
0.0
 11
127.0
 21
-5.0
 31
0.0
  0
LINE
  5
89
330
5B
100
AcDbEntity
  8
GARIS_TABLE
100
AcDbLine
 10
92.0
 20
-10.0
 30
0.0
 11
127.0
 21
-10.0
 31
0.0
  0
LINE
  5
8A
330
5B
100
AcDbEntity
  8
GARIS_TABLE
100
AcDbLine
 10
92.0
 20
-20.0
 30
0.0
 11
127.0
 21
-20.0
 31
0.0
  0
LINE
  5
8B
330
5B
100
AcDbEntity
  8
GARIS_TABLE
100
AcDbLine
 10
92.0
 20
-30.0
 30
0.0
 11
127.0
 21
-30.0
 31
0.0
  0
TEXT
  5
8C
330
5B
100
AcDbEntity
  8
TEXT
 62
4
100
AcDbText
 10
109.5
 20
-7.5
 30
0.0
 40
2.0
  1
3.50
  7
ARIAL
 72
1
 11
109.5
 21
-7.5
 31
0.0
100
AcDbText
 73
2
  0
LINE
  5
8D
330
5B
100
AcDbEntity
  8
GARIS_ELEV
100
AcDbLine
 10
92.0
 20
6.0
 30
0.0
 11
127.0
 21
4.5
 31
0.0
  0
TEXT
  5
8E
330
5B
100
AcDbEntity
  8
TEXT
100
AcDbText
 10
127.0
 20
-2.5
 30
0.0
 40
2.0
  1
R1
  7
ARIAL
 72
1
 11
127.0
 21
-2.5
 31
0.0
100
AcDbText
 73
2
  0
TEXT
  5
8F
330
5B
100
AcDbEntity
  8
TEXT
 62
4
100
AcDbText
 10
127.0
 20
-15.0
 30
0.0
 40
2.0
  1
50.45
 50
90.0
  7
ARIAL
 72
1
 11
127.0
 21
-15.0
 31
0.0
100
AcDbText
 73
2
  0
TEXT
  5
90
330
5B
100
AcDbEntity
  8
TEXT
 62
4
100
AcDbText
 10
127.0
 20
-25.0
 30
0.0
 40
2.0
  1
3.50
 50
90.0
  7
ARIAL
 72
1
 11
127.0
 21
-25.0
 31
0.0
100
AcDbText
 73
2
  0
LINE
  5
91
330
5B
100
AcDbEntity
  8
GARIS_TABLE
100
AcDbLine
 10
127.0
 20
-5.0
 30
0.0
 11
127.0
 21
-10.0
 31
0.0
  0
LINE
  5
92
330
5B
100
AcDbEntity
  8
GARIS_ELEV
100
AcDbLine
 10
127.0
 20
0.0
 30
0.0
 11
127.0
 21
4.5
 31
0.0
  0
LINE
  5
93
330
5B
100
AcDbEntity
  8
GARIS_TABLE
100
AcDbLine
 10
127.0
 20
0.0
 30
0.0
 11
152.0
 21
0.0
 31
0.0
  0
LINE
  5
94
330
5B
100
AcDbEntity
  8
GARIS_TABLE
100
AcDbLine
 10
127.0
 20
-5.0
 30
0.0
 11
152.0
 21
-5.0
 31
0.0
  0
LINE
  5
95
330
5B
100
AcDbEntity
  8
GARIS_TABLE
100
AcDbLine
 10
127.0
 20
-10.0
 30
0.0
 11
152.0
 21
-10.0
 31
0.0
  0
LINE
  5
96
330
5B
100
AcDbEntity
  8
GARIS_TABLE
100
AcDbLine
 10
127.0
 20
-20.0
 30
0.0
 11
152.0
 21
-20.0
 31
0.0
  0
LINE
  5
97
330
5B
100
AcDbEntity
  8
GARIS_TABLE
100
AcDbLine
 10
127.0
 20
-30.0
 30
0.0
 11
152.0
 21
-30.0
 31
0.0
  0
TEXT
  5
98
330
5B
100
AcDbEntity
  8
TEXT
 62
4
100
AcDbText
 10
139.5
 20
-7.5
 30
0.0
 40
2.0
  1
2.50
  7
ARIAL
 72
1
 11
139.5
 21
-7.5
 31
0.0
100
AcDbText
 73
2
  0
LINE
  5
99
330
5B
100
AcDbEntity
  8
GARIS_ELEV
100
AcDbLine
 10
127.0
 20
4.5
 30
0.0
 11
152.0
 21
2.0
 31
0.0
  0
LINE
  5
9A
330
5B
100
AcDbEntity
  8
GARIS_TABLE
100
AcDbLine
 10
155.0
 20
0.0
 30
0.0
 11
155.0
 21
-30.0
 31
0.0
  0
LINE
  5
9B
330
5B
100
AcDbEntity
  8
GARIS_TABLE
100
AcDbLine
 10
152.0
 20
0.0
 30
0.0
 11
155.0
 21
0.0
 31
0.0
  0
LINE
  5
9C
330
5B
100
AcDbEntity
  8
GARIS_TABLE
100
AcDbLine
 10
152.0
 20
-5.0
 30
0.0
 11
155.0
 21
-5.0
 31
0.0
  0
LINE
  5
9D
330
5B
100
AcDbEntity
  8
GARIS_TABLE
100
AcDbLine
 10
152.0
 20
-10.0
 30
0.0
 11
155.0
 21
-10.0
 31
0.0
  0
LINE
  5
9E
330
5B
100
AcDbEntity
  8
GARIS_TABLE
100
AcDbLine
 10
152.0
 20
-20.0
 30
0.0
 11
155.0
 21
-20.0
 31
0.0
  0
LINE
  5
9F
330
5B
100
AcDbEntity
  8
GARIS_TABLE
100
AcDbLine
 10
152.0
 20
-30.0
 30
0.0
 11
155.0
 21
-30.0
 31
0.0
  0
TEXT
  5
A0
330
5B
100
AcDbEntity
  8
TEXT
370
0
100
AcDbText
 10
76.0
 20
-40.0
 30
0.0
 40
3.5
  1
STA 1
  7
ARIAL
 72
1
 11
76.0
 21
-40.0
 31
0.0
100
AcDbText
 73
2
  0
TEXT
  5
A1
330
5B
100
AcDbEntity
  8
TEXT
100
AcDbText
 10
152.0
 20
-2.5
 30
0.0
 40
2.0
  1
R2
  7
ARIAL
 72
1
 11
152.0
 21
-2.5
 31
0.0
100
AcDbText
 73
2
  0
TEXT
  5
A2
330
5B
100
AcDbEntity
  8
TEXT
 62
4
100
AcDbText
 10
152.0
 20
-15.0
 30
0.0
 40
2.0
  1
50.2
 50
90.0
  7
ARIAL
 72
1
 11
152.0
 21
-15.0
 31
0.0
100
AcDbText
 73
2
  0
TEXT
  5
A3
330
5B
100
AcDbEntity
  8
TEXT
 62
4
100
AcDbText
 10
152.0
 20
-25.0
 30
0.0
 40
2.0
  1
6.00
 50
90.0
  7
ARIAL
 72
1
 11
152.0
 21
-25.0
 31
0.0
100
AcDbText
 73
2
  0
LINE
  5
A4
330
5B
100
AcDbEntity
  8
GARIS_TABLE
100
AcDbLine
 10
152.0
 20
-5.0
 30
0.0
 11
152.0
 21
-10.0
 31
0.0
  0
LINE
  5
A5
330
5B
100
AcDbEntity
  8
GARIS_ELEV
100
AcDbLine
 10
152.0
 20
0.0
 30
0.0
 11
152.0
 21
2.0
 31
0.0
  0
ENDBLK
  5
5D
330
5B
100
AcDbEntity
  8
0
100
AcDbBlockEnd
  0
BLOCK
  5
A7
330
A6
100
AcDbEntity
  8
0
100
AcDbBlockBegin
  2
DATA_SURVEY_2
 70
0
 10
0.0
 20
-42.72169167803547
 30
0.0
  3
DATA_SURVEY_2
  1

  0
TEXT
  5
A9
330
A6
100
AcDbEntity
  8
TEXT
100
AcDbText
 10
2.0
 20
-7.5
 30
0.0
 40
2.5
  1
JARAK (M)
  7
ARIAL
 11
2.0
 21
-7.5
 31
0.0
100
AcDbText
 73
2
  0
TEXT
  5
AA
330
A6
100
AcDbEntity
  8
TEXT
100
AcDbText
 10
2.0
 20
-15.0
 30
0.0
 40
2.5
  1
ELEVASI (M)
  7
ARIAL
 11
2.0
 21
-15.0
 31
0.0
100
AcDbText
 73
2
  0
TEXT
  5
AB
330
A6
100
AcDbEntity
  8
TEXT
100
AcDbText
 10
2.0
 20
-25.0
 30
0.0
 40
2.5
  1
JARAK K (M)
  7
ARIAL
 11
2.0
 21
-25.0
 31
0.0
100
AcDbText
 73
2
  0
TEXT
  5
AC
330
A6
100
AcDbEntity
  8
TEXT
100
AcDbText
 10
2.0
 20
-2.5
 30
0.0
 40
2.5
  1
TITIK
  7
ARIAL
 11
2.0
 21
-2.5
 31
0.0
100
AcDbText
 73
2
  0
TEXT
  5
AD
330
A6
100
AcDbEntity
  8
TEXT
100
AcDbText
 10
2.0
 20
2.5
 30
0.0
 40
2.5
  1
DL = 49M
  7
ARIAL
 11
2.0
 21
2.5
 31
0.0
100
AcDbText
 73
2
  0
LINE
  5
AE
330
A6
100
AcDbEntity
  8
GARIS_TABLE
100
AcDbLine
 10
0.0
 20
0.0
 30
0.0
 11
32.0
 21
0.0
 31
0.0
  0
LINE
  5
AF
330
A6
100
AcDbEntity
  8
GARIS_TABLE
100
AcDbLine
 10
0.0
 20
-5.0
 30
0.0
 11
32.0
 21
-5.0
 31
0.0
  0
LINE
  5
B0
330
A6
100
AcDbEntity
  8
GARIS_TABLE
100
AcDbLine
 10
0.0
 20
-10.0
 30
0.0
 11
32.0
 21
-10.0
 31
0.0
  0
LINE
  5
B1
330
A6
100
AcDbEntity
  8
GARIS_TABLE
100
AcDbLine
 10
0.0
 20
-20.0
 30
0.0
 11
32.0
 21
-20.0
 31
0.0
  0
LINE
  5
B2
330
A6
100
AcDbEntity
  8
GARIS_TABLE
100
AcDbLine
 10
0.0
 20
-30.0
 30
0.0
 11
32.0
 21
-30.0
 31
0.0
  0
LINE
  5
B3
330
A6
100
AcDbEntity
  8
GARIS_TABLE
100
AcDbLine
 10
0.0
 20
0.0
 30
0.0
 11
0.0
 21
-30.0
 31
0.0
  0
LINE
  5
B4
330
A6
100
AcDbEntity
  8
GARIS_TABLE
100
AcDbLine
 10
29.0
 20
0.0
 30
0.0
 11
29.0
 21
-30.0
 31
0.0
  0
TEXT
  5
B5
330
A6
100
AcDbEntity
  8
TEXT
100
AcDbText
 10
32.0
 20
-2.5
 30
0.0
 40
2.0
  1
L1
  7
ARIAL
 72
1
 11
32.0
 21
-2.5
 31
0.0
100
AcDbText
 73
2
  0
TEXT
  5
B6
330
A6
100
AcDbEntity
  8
TEXT
 62
4
100
AcDbText
 10
32.0
 20
-15.0
 30
0.0
 40
2.0
  1
51.1
 50
90.0
  7
ARIAL
 72
1
 11
32.0
 21
-15.0
 31
0.0
100
AcDbText
 73
2
  0
TEXT
  5
B7
330
A6
100
AcDbEntity
  8
TEXT
 62
4
100
AcDbText
 10
32.0
 20
-25.0
 30
0.0
 40
2.0
  1
-5.50
 50
90.0
  7
ARIAL
 72
1
 11
32.0
 21
-25.0
 31
0.0
100
AcDbText
 73
2
  0
LINE
  5
B8
330
A6
100
AcDbEntity
  8
GARIS_TABLE
100
AcDbLine
 10
32.0
 20
-5.0
 30
0.0
 11
32.0
 21
-10.0
 31
0.0
  0
LINE
  5
B9
330
A6
100
AcDbEntity
  8
GARIS_ELEV
100
AcDbLine
 10
32.0
 20
0.0
 30
0.0
 11
32.0
 21
2.0
 31
0.0
  0
LINE
  5
BA
330
A6
100
AcDbEntity
  8
GARIS_TABLE
100
AcDbLine
 10
32.0
 20
0.0
 30
0.0
 11
87.0
 21
0.0
 31
0.0
  0
LINE
  5
BB
330
A6
100
AcDbEntity
  8
GARIS_TABLE
100
AcDbLine
 10
32.0
 20
-5.0
 30
0.0
 11
87.0
 21
-5.0
 31
0.0
  0
LINE
  5
BC
330
A6
100
AcDbEntity
  8
GARIS_TABLE
100
AcDbLine
 10
32.0
 20
-10.0
 30
0.0
 11
87.0
 21
-10.0
 31
0.0
  0
LINE
  5
BD
330
A6
100
AcDbEntity
  8
GARIS_TABLE
100
AcDbLine
 10
32.0
 20
-20.0
 30
0.0
 11
87.0
 21
-20.0
 31
0.0
  0
LINE
  5
BE
330
A6
100
AcDbEntity
  8
GARIS_TABLE
100
AcDbLine
 10
32.0
 20
-30.0
 30
0.0
 11
87.0
 21
-30.0
 31
0.0
  0
TEXT
  5
BF
330
A6
100
AcDbEntity
  8
TEXT
 62
4
100
AcDbText
 10
59.5
 20
-7.5
 30
0.0
 40
2.0
  1
5.50
  7
ARIAL
 72
1
 11
59.5
 21
-7.5
 31
0.0
100
AcDbText
 73
2
  0
LINE
  5
C0
330
A6
100
AcDbEntity
  8
GARIS_ELEV
100
AcDbLine
 10
32.0
 20
2.0
 30
0.0
 11
87.0
 21
6.0
 31
0.0
  0
TEXT
  5
C1
330
A6
100
AcDbEntity
  8
TEXT
100
AcDbText
 10
87.0
 20
-2.5
 30
0.0
 40
2.0
  1
STA 2
  7
ARIAL
 72
1
 11
87.0
 21
-2.5
 31
0.0
100
AcDbText
 73
2
  0
TEXT
  5
C2
330
A6
100
AcDbEntity
  8
TEXT
 62
4
100
AcDbText
 10
87.0
 20
-15.0
 30
0.0
 40
2.0
  1
51.5
 50
90.0
  7
ARIAL
 72
1
 11
87.0
 21
-15.0
 31
0.0
100
AcDbText
 73
2
  0
TEXT
  5
C3
330
A6
100
AcDbEntity
  8
TEXT
 62
4
100
AcDbText
 10
87.0
 20
-25.0
 30
0.0
 40
2.0
  1
0.00
 50
90.0
  7
ARIAL
 72
1
 11
87.0
 21
-25.0
 31
0.0
100
AcDbText
 73
2
  0
LINE
  5
C4
330
A6
100
AcDbEntity
  8
GARIS_TABLE
100
AcDbLine
 10
87.0
 20
-5.0
 30
0.0
 11
87.0
 21
-10.0
 31
0.0
  0
LINE
  5
C5
330
A6
100
AcDbEntity
  8
GARIS_ELEV
100
AcDbLine
 10
87.0
 20
0.0
 30
0.0
 11
87.0
 21
6.0
 31
0.0
  0
LINE
  5
C6
330
A6
100
AcDbEntity
  8
GARIS_TABLE
100
AcDbLine
 10
87.0
 20
0.0
 30
0.0
 11
142.0
 21
0.0
 31
0.0
  0
LINE
  5
C7
330
A6
100
AcDbEntity
  8
GARIS_TABLE
100
AcDbLine
 10
87.0
 20
-5.0
 30
0.0
 11
142.0
 21
-5.0
 31
0.0
  0
LINE
  5
C8
330
A6
100
AcDbEntity
  8
GARIS_TABLE
100
AcDbLine
 10
87.0
 20
-10.0
 30
0.0
 11
142.0
 21
-10.0
 31
0.0
  0
LINE
  5
C9
330
A6
100
AcDbEntity
  8
GARIS_TABLE
100
AcDbLine
 10
87.0
 20
-20.0
 30
0.0
 11
142.0
 21
-20.0
 31
0.0
  0
LINE
  5
CA
330
A6
100
AcDbEntity
  8
GARIS_TABLE
100
AcDbLine
 10
87.0
 20
-30.0
 30
0.0
 11
142.0
 21
-30.0
 31
0.0
  0
TEXT
  5
CB
330
A6
100
AcDbEntity
  8
TEXT
 62
4
100
AcDbText
 10
114.5
 20
-7.5
 30
0.0
 40
2.0
  1
5.50
  7
ARIAL
 72
1
 11
114.5
 21
-7.5
 31
0.0
100
AcDbText
 73
2
  0
LINE
  5
CC
330
A6
100
AcDbEntity
  8
GARIS_ELEV
100
AcDbLine
 10
87.0
 20
6.0
 30
0.0
 11
142.0
 21
2.0
 31
0.0
  0
LINE
  5
CD
330
A6
100
AcDbEntity
  8
GARIS_TABLE
100
AcDbLine
 10
145.0
 20
0.0
 30
0.0
 11
145.0
 21
-30.0
 31
0.0
  0
LINE
  5
CE
330
A6
100
AcDbEntity
  8
GARIS_TABLE
100
AcDbLine
 10
142.0
 20
0.0
 30
0.0
 11
145.0
 21
0.0
 31
0.0
  0
LINE
  5
CF
330
A6
100
AcDbEntity
  8
GARIS_TABLE
100
AcDbLine
 10
142.0
 20
-5.0
 30
0.0
 11
145.0
 21
-5.0
 31
0.0
  0
LINE
  5
D0
330
A6
100
AcDbEntity
  8
GARIS_TABLE
100
AcDbLine
 10
142.0
 20
-10.0
 30
0.0
 11
145.0
 21
-10.0
 31
0.0
  0
LINE
  5
D1
330
A6
100
AcDbEntity
  8
GARIS_TABLE
100
AcDbLine
 10
142.0
 20
-20.0
 30
0.0
 11
145.0
 21
-20.0
 31
0.0
  0
LINE
  5
D2
330
A6
100
AcDbEntity
  8
GARIS_TABLE
100
AcDbLine
 10
142.0
 20
-30.0
 30
0.0
 11
145.0
 21
-30.0
 31
0.0
  0
TEXT
  5
D3
330
A6
100
AcDbEntity
  8
TEXT
370
0
100
AcDbText
 10
71.0
 20
-40.0
 30
0.0
 40
3.5
  1
STA 2
  7
ARIAL
 72
1
 11
71.0
 21
-40.0
 31
0.0
100
AcDbText
 73
2
  0
TEXT
  5
D4
330
A6
100
AcDbEntity
  8
TEXT
100
AcDbText
 10
142.0
 20
-2.5
 30
0.0
 40
2.0
  1
R1
  7
ARIAL
 72
1
 11
142.0
 21
-2.5
 31
0.0
100
AcDbText
 73
2
  0
TEXT
  5
D5
330
A6
100
AcDbEntity
  8
TEXT
 62
4
100
AcDbText
 10
142.0
 20
-15.0
 30
0.0
 40
2.0
  1
51.1
 50
90.0
  7
ARIAL
 72
1
 11
142.0
 21
-15.0
 31
0.0
100
AcDbText
 73
2
  0
TEXT
  5
D6
330
A6
100
AcDbEntity
  8
TEXT
 62
4
100
AcDbText
 10
142.0
 20
-25.0
 30
0.0
 40
2.0
  1
5.50
 50
90.0
  7
ARIAL
 72
1
 11
142.0
 21
-25.0
 31
0.0
100
AcDbText
 73
2
  0
LINE
  5
D7
330
A6
100
AcDbEntity
  8
GARIS_TABLE
100
AcDbLine
 10
142.0
 20
-5.0
 30
0.0
 11
142.0
 21
-10.0
 31
0.0
  0
LINE
  5
D8
330
A6
100
AcDbEntity
  8
GARIS_ELEV
100
AcDbLine
 10
142.0
 20
0.0
 30
0.0
 11
142.0
 21
2.0
 31
0.0
  0
ENDBLK
  5
A8
330
A6
100
AcDbEntity
  8
0
100
AcDbBlockEnd
  0
BLOCK
  5
DA
330
D9
100
AcDbEntity
  8
0
100
AcDbBlockBegin
  2
DATA_SURVEY_3
 70
0
 10
0.0
 20
-42.72169167803547
 30
0.0
  3
DATA_SURVEY_3
  1

  0
TEXT
  5
DC
330
D9
100
AcDbEntity
  8
TEXT
100
AcDbText
 10
2.0
 20
-7.5
 30
0.0
 40
2.5
  1
JARAK (M)
  7
ARIAL
 11
2.0
 21
-7.5
 31
0.0
100
AcDbText
 73
2
  0
TEXT
  5
DD
330
D9
100
AcDbEntity
  8
TEXT
100
AcDbText
 10
2.0
 20
-15.0
 30
0.0
 40
2.5
  1
ELEVASI (M)
  7
ARIAL
 11
2.0
 21
-15.0
 31
0.0
100
AcDbText
 73
2
  0
TEXT
  5
DE
330
D9
100
AcDbEntity
  8
TEXT
100
AcDbText
 10
2.0
 20
-25.0
 30
0.0
 40
2.5
  1
JARAK K (M)
  7
ARIAL
 11
2.0
 21
-25.0
 31
0.0
100
AcDbText
 73
2
  0
TEXT
  5
DF
330
D9
100
AcDbEntity
  8
TEXT
100
AcDbText
 10
2.0
 20
-2.5
 30
0.0
 40
2.5
  1
TITIK
  7
ARIAL
 11
2.0
 21
-2.5
 31
0.0
100
AcDbText
 73
2
  0
TEXT
  5
E0
330
D9
100
AcDbEntity
  8
TEXT
100
AcDbText
 10
2.0
 20
2.5
 30
0.0
 40
2.5
  1
DL = 47M
  7
ARIAL
 11
2.0
 21
2.5
 31
0.0
100
AcDbText
 73
2
  0
LINE
  5
E1
330
D9
100
AcDbEntity
  8
GARIS_TABLE
100
AcDbLine
 10
0.0
 20
0.0
 30
0.0
 11
32.0
 21
0.0
 31
0.0
  0
LINE
  5
E2
330
D9
100
AcDbEntity
  8
GARIS_TABLE
100
AcDbLine
 10
0.0
 20
-5.0
 30
0.0
 11
32.0
 21
-5.0
 31
0.0
  0
LINE
  5
E3
330
D9
100
AcDbEntity
  8
GARIS_TABLE
100
AcDbLine
 10
0.0
 20
-10.0
 30
0.0
 11
32.0
 21
-10.0
 31
0.0
  0
LINE
  5
E4
330
D9
100
AcDbEntity
  8
GARIS_TABLE
100
AcDbLine
 10
0.0
 20
-20.0
 30
0.0
 11
32.0
 21
-20.0
 31
0.0
  0
LINE
  5
E5
330
D9
100
AcDbEntity
  8
GARIS_TABLE
100
AcDbLine
 10
0.0
 20
-30.0
 30
0.0
 11
32.0
 21
-30.0
 31
0.0
  0
LINE
  5
E6
330
D9
100
AcDbEntity
  8
GARIS_TABLE
100
AcDbLine
 10
0.0
 20
0.0
 30
0.0
 11
0.0
 21
-30.0
 31
0.0
  0
LINE
  5
E7
330
D9
100
AcDbEntity
  8
GARIS_TABLE
100
AcDbLine
 10
29.0
 20
0.0
 30
0.0
 11
29.0
 21
-30.0
 31
0.0
  0
TEXT
  5
E8
330
D9
100
AcDbEntity
  8
TEXT
100
AcDbText
 10
32.0
 20
-2.5
 30
0.0
 40
2.0
  1
L3
  7
ARIAL
 72
1
 11
32.0
 21
-2.5
 31
0.0
100
AcDbText
 73
2
  0
TEXT
  5
E9
330
D9
100
AcDbEntity
  8
TEXT
 62
4
100
AcDbText
 10
32.0
 20
-15.0
 30
0.0
 40
2.0
  1
49.5
 50
90.0
  7
ARIAL
 72
1
 11
32.0
 21
-15.0
 31
0.0
100
AcDbText
 73
2
  0
TEXT
  5
EA
330
D9
100
AcDbEntity
  8
TEXT
 62
4
100
AcDbText
 10
32.0
 20
-25.0
 30
0.0
 40
2.0
  1
-8.00
 50
90.0
  7
ARIAL
 72
1
 11
32.0
 21
-25.0
 31
0.0
100
AcDbText
 73
2
  0
LINE
  5
EB
330
D9
100
AcDbEntity
  8
GARIS_TABLE
100
AcDbLine
 10
32.0
 20
-5.0
 30
0.0
 11
32.0
 21
-10.0
 31
0.0
  0
LINE
  5
EC
330
D9
100
AcDbEntity
  8
GARIS_ELEV
100
AcDbLine
 10
32.0
 20
0.0
 30
0.0
 11
32.0
 21
2.0
 31
0.0
  0
LINE
  5
ED
330
D9
100
AcDbEntity
  8
GARIS_TABLE
100
AcDbLine
 10
32.0
 20
0.0
 30
0.0
 11
52.0
 21
0.0
 31
0.0
  0
LINE
  5
EE
330
D9
100
AcDbEntity
  8
GARIS_TABLE
100
AcDbLine
 10
32.0
 20
-5.0
 30
0.0
 11
52.0
 21
-5.0
 31
0.0
  0
LINE
  5
EF
330
D9
100
AcDbEntity
  8
GARIS_TABLE
100
AcDbLine
 10
32.0
 20
-10.0
 30
0.0
 11
52.0
 21
-10.0
 31
0.0
  0
LINE
  5
F0
330
D9
100
AcDbEntity
  8
GARIS_TABLE
100
AcDbLine
 10
32.0
 20
-20.0
 30
0.0
 11
52.0
 21
-20.0
 31
0.0
  0
LINE
  5
F1
330
D9
100
AcDbEntity
  8
GARIS_TABLE
100
AcDbLine
 10
32.0
 20
-30.0
 30
0.0
 11
52.0
 21
-30.0
 31
0.0
  0
TEXT
  5
F2
330
D9
100
AcDbEntity
  8
TEXT
 62
4
100
AcDbText
 10
42.0
 20
-7.5
 30
0.0
 40
2.0
  1
2.00
  7
ARIAL
 72
1
 11
42.0
 21
-7.5
 31
0.0
100
AcDbText
 73
2
  0
LINE
  5
F3
330
D9
100
AcDbEntity
  8
GARIS_ELEV
100
AcDbLine
 10
32.0
 20
2.0
 30
0.0
 11
52.0
 21
25.0
 31
0.0
  0
TEXT
  5
F4
330
D9
100
AcDbEntity
  8
TEXT
100
AcDbText
 10
52.0
 20
-2.5
 30
0.0
 40
2.0
  1
L2
  7
ARIAL
 72
1
 11
52.0
 21
-2.5
 31
0.0
100
AcDbText
 73
2
  0
TEXT
  5
F5
330
D9
100
AcDbEntity
  8
TEXT
 62
4
100
AcDbText
 10
52.0
 20
-15.0
 30
0.0
 40
2.0
  1
51.8
 50
90.0
  7
ARIAL
 72
1
 11
52.0
 21
-15.0
 31
0.0
100
AcDbText
 73
2
  0
TEXT
  5
F6
330
D9
100
AcDbEntity
  8
TEXT
 62
4
100
AcDbText
 10
52.0
 20
-25.0
 30
0.0
 40
2.0
  1
-6.00
 50
90.0
  7
ARIAL
 72
1
 11
52.0
 21
-25.0
 31
0.0
100
AcDbText
 73
2
  0
LINE
  5
F7
330
D9
100
AcDbEntity
  8
GARIS_TABLE
100
AcDbLine
 10
52.0
 20
-5.0
 30
0.0
 11
52.0
 21
-10.0
 31
0.0
  0
LINE
  5
F8
330
D9
100
AcDbEntity
  8
GARIS_ELEV
100
AcDbLine
 10
52.0
 20
0.0
 30
0.0
 11
52.0
 21
25.0
 31
0.0
  0
LINE
  5
F9
330
D9
100
AcDbEntity
  8
GARIS_TABLE
100
AcDbLine
 10
52.0
 20
0.0
 30
0.0
 11
82.0
 21
0.0
 31
0.0
  0
LINE
  5
FA
330
D9
100
AcDbEntity
  8
GARIS_TABLE
100
AcDbLine
 10
52.0
 20
-5.0
 30
0.0
 11
82.0
 21
-5.0
 31
0.0
  0
LINE
  5
FB
330
D9
100
AcDbEntity
  8
GARIS_TABLE
100
AcDbLine
 10
52.0
 20
-10.0
 30
0.0
 11
82.0
 21
-10.0
 31
0.0
  0
LINE
  5
FC
330
D9
100
AcDbEntity
  8
GARIS_TABLE
100
AcDbLine
 10
52.0
 20
-20.0
 30
0.0
 11
82.0
 21
-20.0
 31
0.0
  0
LINE
  5
FD
330
D9
100
AcDbEntity
  8
GARIS_TABLE
100
AcDbLine
 10
52.0
 20
-30.0
 30
0.0
 11
82.0
 21
-30.0
 31
0.0
  0
TEXT
  5
FE
330
D9
100
AcDbEntity
  8
TEXT
 62
4
100
AcDbText
 10
67.0
 20
-7.5
 30
0.0
 40
2.0
  1
3.00
  7
ARIAL
 72
1
 11
67.0
 21
-7.5
 31
0.0
100
AcDbText
 73
2
  0
LINE
  5
FF
330
D9
100
AcDbEntity
  8
GARIS_ELEV
100
AcDbLine
 10
52.0
 20
25.0
 30
0.0
 11
82.0
 21
27.5
 31
0.0
  0
TEXT
  5
100
330
D9
100
AcDbEntity
  8
TEXT
100
AcDbText
 10
82.0
 20
-2.5
 30
0.0
 40
2.0
  1
L1
  7
ARIAL
 72
1
 11
82.0
 21
-2.5
 31
0.0
100
AcDbText
 73
2
  0
TEXT
  5
101
330
D9
100
AcDbEntity
  8
TEXT
 62
4
100
AcDbText
 10
82.0
 20
-15.0
 30
0.0
 40
2.0
  1
52.05
 50
90.0
  7
ARIAL
 72
1
 11
82.0
 21
-15.0
 31
0.0
100
AcDbText
 73
2
  0
TEXT
  5
102
330
D9
100
AcDbEntity
  8
TEXT
 62
4
100
AcDbText
 10
82.0
 20
-25.0
 30
0.0
 40
2.0
  1
-3.00
 50
90.0
  7
ARIAL
 72
1
 11
82.0
 21
-25.0
 31
0.0
100
AcDbText
 73
2
  0
LINE
  5
103
330
D9
100
AcDbEntity
  8
GARIS_TABLE
100
AcDbLine
 10
82.0
 20
-5.0
 30
0.0
 11
82.0
 21
-10.0
 31
0.0
  0
LINE
  5
104
330
D9
100
AcDbEntity
  8
GARIS_ELEV
100
AcDbLine
 10
82.0
 20
0.0
 30
0.0
 11
82.0
 21
27.5
 31
0.0
  0
LINE
  5
105
330
D9
100
AcDbEntity
  8
GARIS_TABLE
100
AcDbLine
 10
82.0
 20
0.0
 30
0.0
 11
112.0
 21
0.0
 31
0.0
  0
LINE
  5
106
330
D9
100
AcDbEntity
  8
GARIS_TABLE
100
AcDbLine
 10
82.0
 20
-5.0
 30
0.0
 11
112.0
 21
-5.0
 31
0.0
  0
LINE
  5
107
330
D9
100
AcDbEntity
  8
GARIS_TABLE
100
AcDbLine
 10
82.0
 20
-10.0
 30
0.0
 11
112.0
 21
-10.0
 31
0.0
  0
LINE
  5
108
330
D9
100
AcDbEntity
  8
GARIS_TABLE
100
AcDbLine
 10
82.0
 20
-20.0
 30
0.0
 11
112.0
 21
-20.0
 31
0.0
  0
LINE
  5
109
330
D9
100
AcDbEntity
  8
GARIS_TABLE
100
AcDbLine
 10
82.0
 20
-30.0
 30
0.0
 11
112.0
 21
-30.0
 31
0.0
  0
TEXT
  5
10A
330
D9
100
AcDbEntity
  8
TEXT
 62
4
100
AcDbText
 10
97.0
 20
-7.5
 30
0.0
 40
2.0
  1
3.00
  7
ARIAL
 72
1
 11
97.0
 21
-7.5
 31
0.0
100
AcDbText
 73
2
  0
LINE
  5
10B
330
D9
100
AcDbEntity
  8
GARIS_ELEV
100
AcDbLine
 10
82.0
 20
27.5
 30
0.0
 11
112.0
 21
29.0
 31
0.0
  0
TEXT
  5
10C
330
D9
100
AcDbEntity
  8
TEXT
100
AcDbText
 10
112.0
 20
-2.5
 30
0.0
 40
2.0
  1
STA 3
  7
ARIAL
 72
1
 11
112.0
 21
-2.5
 31
0.0
100
AcDbText
 73
2
  0
TEXT
  5
10D
330
D9
100
AcDbEntity
  8
TEXT
 62
4
100
AcDbText
 10
112.0
 20
-15.0
 30
0.0
 40
2.0
  1
52.2
 50
90.0
  7
ARIAL
 72
1
 11
112.0
 21
-15.0
 31
0.0
100
AcDbText
 73
2
  0
TEXT
  5
10E
330
D9
100
AcDbEntity
  8
TEXT
 62
4
100
AcDbText
 10
112.0
 20
-25.0
 30
0.0
 40
2.0
  1
0.00
 50
90.0
  7
ARIAL
 72
1
 11
112.0
 21
-25.0
 31
0.0
100
AcDbText
 73
2
  0
LINE
  5
10F
330
D9
100
AcDbEntity
  8
GARIS_TABLE
100
AcDbLine
 10
112.0
 20
-5.0
 30
0.0
 11
112.0
 21
-10.0
 31
0.0
  0
LINE
  5
110
330
D9
100
AcDbEntity
  8
GARIS_ELEV
100
AcDbLine
 10
112.0
 20
0.0
 30
0.0
 11
112.0
 21
29.0
 31
0.0
  0
LINE
  5
111
330
D9
100
AcDbEntity
  8
GARIS_TABLE
100
AcDbLine
 10
112.0
 20
0.0
 30
0.0
 11
142.0
 21
0.0
 31
0.0
  0
LINE
  5
112
330
D9
100
AcDbEntity
  8
GARIS_TABLE
100
AcDbLine
 10
112.0
 20
-5.0
 30
0.0
 11
142.0
 21
-5.0
 31
0.0
  0
LINE
  5
113
330
D9
100
AcDbEntity
  8
GARIS_TABLE
100
AcDbLine
 10
112.0
 20
-10.0
 30
0.0
 11
142.0
 21
-10.0
 31
0.0
  0
LINE
  5
114
330
D9
100
AcDbEntity
  8
GARIS_TABLE
100
AcDbLine
 10
112.0
 20
-20.0
 30
0.0
 11
142.0
 21
-20.0
 31
0.0
  0
LINE
  5
115
330
D9
100
AcDbEntity
  8
GARIS_TABLE
100
AcDbLine
 10
112.0
 20
-30.0
 30
0.0
 11
142.0
 21
-30.0
 31
0.0
  0
TEXT
  5
116
330
D9
100
AcDbEntity
  8
TEXT
 62
4
100
AcDbText
 10
127.0
 20
-7.5
 30
0.0
 40
2.0
  1
3.00
  7
ARIAL
 72
1
 11
127.0
 21
-7.5
 31
0.0
100
AcDbText
 73
2
  0
LINE
  5
117
330
D9
100
AcDbEntity
  8
GARIS_ELEV
100
AcDbLine
 10
112.0
 20
29.0
 30
0.0
 11
142.0
 21
27.5
 31
0.0
  0
TEXT
  5
118
330
D9
100
AcDbEntity
  8
TEXT
100
AcDbText
 10
142.0
 20
-2.5
 30
0.0
 40
2.0
  1
R1
  7
ARIAL
 72
1
 11
142.0
 21
-2.5
 31
0.0
100
AcDbText
 73
2
  0
TEXT
  5
119
330
D9
100
AcDbEntity
  8
TEXT
 62
4
100
AcDbText
 10
142.0
 20
-15.0
 30
0.0
 40
2.0
  1
52.05
 50
90.0
  7
ARIAL
 72
1
 11
142.0
 21
-15.0
 31
0.0
100
AcDbText
 73
2
  0
TEXT
  5
11A
330
D9
100
AcDbEntity
  8
TEXT
 62
4
100
AcDbText
 10
142.0
 20
-25.0
 30
0.0
 40
2.0
  1
3.00
 50
90.0
  7
ARIAL
 72
1
 11
142.0
 21
-25.0
 31
0.0
100
AcDbText
 73
2
  0
LINE
  5
11B
330
D9
100
AcDbEntity
  8
GARIS_TABLE
100
AcDbLine
 10
142.0
 20
-5.0
 30
0.0
 11
142.0
 21
-10.0
 31
0.0
  0
LINE
  5
11C
330
D9
100
AcDbEntity
  8
GARIS_ELEV
100
AcDbLine
 10
142.0
 20
0.0
 30
0.0
 11
142.0
 21
27.5
 31
0.0
  0
LINE
  5
11D
330
D9
100
AcDbEntity
  8
GARIS_TABLE
100
AcDbLine
 10
142.0
 20
0.0
 30
0.0
 11
172.0
 21
0.0
 31
0.0
  0
LINE
  5
11E
330
D9
100
AcDbEntity
  8
GARIS_TABLE
100
AcDbLine
 10
142.0
 20
-5.0
 30
0.0
 11
172.0
 21
-5.0
 31
0.0
  0
LINE
  5
11F
330
D9
100
AcDbEntity
  8
GARIS_TABLE
100
AcDbLine
 10
142.0
 20
-10.0
 30
0.0
 11
172.0
 21
-10.0
 31
0.0
  0
LINE
  5
120
330
D9
100
AcDbEntity
  8
GARIS_TABLE
100
AcDbLine
 10
142.0
 20
-20.0
 30
0.0
 11
172.0
 21
-20.0
 31
0.0
  0
LINE
  5
121
330
D9
100
AcDbEntity
  8
GARIS_TABLE
100
AcDbLine
 10
142.0
 20
-30.0
 30
0.0
 11
172.0
 21
-30.0
 31
0.0
  0
TEXT
  5
122
330
D9
100
AcDbEntity
  8
TEXT
 62
4
100
AcDbText
 10
157.0
 20
-7.5
 30
0.0
 40
2.0
  1
3.00
  7
ARIAL
 72
1
 11
157.0
 21
-7.5
 31
0.0
100
AcDbText
 73
2
  0
LINE
  5
123
330
D9
100
AcDbEntity
  8
GARIS_ELEV
100
AcDbLine
 10
142.0
 20
27.5
 30
0.0
 11
172.0
 21
25.0
 31
0.0
  0
LINE
  5
124
330
D9
100
AcDbEntity
  8
GARIS_TABLE
100
AcDbLine
 10
175.0
 20
0.0
 30
0.0
 11
175.0
 21
-30.0
 31
0.0
  0
LINE
  5
125
330
D9
100
AcDbEntity
  8
GARIS_TABLE
100
AcDbLine
 10
172.0
 20
0.0
 30
0.0
 11
175.0
 21
0.0
 31
0.0
  0
LINE
  5
126
330
D9
100
AcDbEntity
  8
GARIS_TABLE
100
AcDbLine
 10
172.0
 20
-5.0
 30
0.0
 11
175.0
 21
-5.0
 31
0.0
  0
LINE
  5
127
330
D9
100
AcDbEntity
  8
GARIS_TABLE
100
AcDbLine
 10
172.0
 20
-10.0
 30
0.0
 11
175.0
 21
-10.0
 31
0.0
  0
LINE
  5
128
330
D9
100
AcDbEntity
  8
GARIS_TABLE
100
AcDbLine
 10
172.0
 20
-20.0
 30
0.0
 11
175.0
 21
-20.0
 31
0.0
  0
LINE
  5
129
330
D9
100
AcDbEntity
  8
GARIS_TABLE
100
AcDbLine
 10
172.0
 20
-30.0
 30
0.0
 11
175.0
 21
-30.0
 31
0.0
  0
TEXT
  5
12A
330
D9
100
AcDbEntity
  8
TEXT
370
0
100
AcDbText
 10
86.0
 20
-40.0
 30
0.0
 40
3.5
  1
STA 3
  7
ARIAL
 72
1
 11
86.0
 21
-40.0
 31
0.0
100
AcDbText
 73
2
  0
TEXT
  5
12B
330
D9
100
AcDbEntity
  8
TEXT
100
AcDbText
 10
172.0
 20
-2.5
 30
0.0
 40
2.0
  1
R2
  7
ARIAL
 72
1
 11
172.0
 21
-2.5
 31
0.0
100
AcDbText
 73
2
  0
TEXT
  5
12C
330
D9
100
AcDbEntity
  8
TEXT
 62
4
100
AcDbText
 10
172.0
 20
-15.0
 30
0.0
 40
2.0
  1
51.8
 50
90.0
  7
ARIAL
 72
1
 11
172.0
 21
-15.0
 31
0.0
100
AcDbText
 73
2
  0
TEXT
  5
12D
330
D9
100
AcDbEntity
  8
TEXT
 62
4
100
AcDbText
 10
172.0
 20
-25.0
 30
0.0
 40
2.0
  1
6.00
 50
90.0
  7
ARIAL
 72
1
 11
172.0
 21
-25.0
 31
0.0
100
AcDbText
 73
2
  0
LINE
  5
12E
330
D9
100
AcDbEntity
  8
GARIS_TABLE
100
AcDbLine
 10
172.0
 20
-5.0
 30
0.0
 11
172.0
 21
-10.0
 31
0.0
  0
LINE
  5
12F
330
D9
100
AcDbEntity
  8
GARIS_ELEV
100
AcDbLine
 10
172.0
 20
0.0
 30
0.0
 11
172.0
 21
25.0
 31
0.0
  0
ENDBLK
  5
DB
330
D9
100
AcDbEntity
  8
0
100
AcDbBlockEnd
  0
BLOCK
  5
131
330
130
100
AcDbEntity
  8
0
100
AcDbBlockBegin
  2
DATA_SURVEY_4
 70
0
 10
0.0
 20
-42.72169167803547
 30
0.0
  3
DATA_SURVEY_4
  1

  0
TEXT
  5
133
330
130
100
AcDbEntity
  8
TEXT
100
AcDbText
 10
2.0
 20
-7.5
 30
0.0
 40
2.5
  1
JARAK (M)
  7
ARIAL
 11
2.0
 21
-7.5
 31
0.0
100
AcDbText
 73
2
  0
TEXT
  5
134
330
130
100
AcDbEntity
  8
TEXT
100
AcDbText
 10
2.0
 20
-15.0
 30
0.0
 40
2.5
  1
ELEVASI (M)
  7
ARIAL
 11
2.0
 21
-15.0
 31
0.0
100
AcDbText
 73
2
  0
TEXT
  5
135
330
130
100
AcDbEntity
  8
TEXT
100
AcDbText
 10
2.0
 20
-25.0
 30
0.0
 40
2.5
  1
JARAK K (M)
  7
ARIAL
 11
2.0
 21
-25.0
 31
0.0
100
AcDbText
 73
2
  0
TEXT
  5
136
330
130
100
AcDbEntity
  8
TEXT
100
AcDbText
 10
2.0
 20
-2.5
 30
0.0
 40
2.5
  1
TITIK
  7
ARIAL
 11
2.0
 21
-2.5
 31
0.0
100
AcDbText
 73
2
  0
TEXT
  5
137
330
130
100
AcDbEntity
  8
TEXT
100
AcDbText
 10
2.0
 20
2.5
 30
0.0
 40
2.5
  1
DL = 50M
  7
ARIAL
 11
2.0
 21
2.5
 31
0.0
100
AcDbText
 73
2
  0
LINE
  5
138
330
130
100
AcDbEntity
  8
GARIS_TABLE
100
AcDbLine
 10
0.0
 20
0.0
 30
0.0
 11
32.0
 21
0.0
 31
0.0
  0
LINE
  5
139
330
130
100
AcDbEntity
  8
GARIS_TABLE
100
AcDbLine
 10
0.0
 20
-5.0
 30
0.0
 11
32.0
 21
-5.0
 31
0.0
  0
LINE
  5
13A
330
130
100
AcDbEntity
  8
GARIS_TABLE
100
AcDbLine
 10
0.0
 20
-10.0
 30
0.0
 11
32.0
 21
-10.0
 31
0.0
  0
LINE
  5
13B
330
130
100
AcDbEntity
  8
GARIS_TABLE
100
AcDbLine
 10
0.0
 20
-20.0
 30
0.0
 11
32.0
 21
-20.0
 31
0.0
  0
LINE
  5
13C
330
130
100
AcDbEntity
  8
GARIS_TABLE
100
AcDbLine
 10
0.0
 20
-30.0
 30
0.0
 11
32.0
 21
-30.0
 31
0.0
  0
LINE
  5
13D
330
130
100
AcDbEntity
  8
GARIS_TABLE
100
AcDbLine
 10
0.0
 20
0.0
 30
0.0
 11
0.0
 21
-30.0
 31
0.0
  0
LINE
  5
13E
330
130
100
AcDbEntity
  8
GARIS_TABLE
100
AcDbLine
 10
29.0
 20
0.0
 30
0.0
 11
29.0
 21
-30.0
 31
0.0
  0
TEXT
  5
13F
330
130
100
AcDbEntity
  8
TEXT
100
AcDbText
 10
32.0
 20
-2.5
 30
0.0
 40
2.0
  1
L2
  7
ARIAL
 72
1
 11
32.0
 21
-2.5
 31
0.0
100
AcDbText
 73
2
  0
TEXT
  5
140
330
130
100
AcDbEntity
  8
TEXT
 62
4
100
AcDbText
 10
32.0
 20
-15.0
 30
0.0
 40
2.0
  1
55.0
 50
90.0
  7
ARIAL
 72
1
 11
32.0
 21
-15.0
 31
0.0
100
AcDbText
 73
2
  0
TEXT
  5
141
330
130
100
AcDbEntity
  8
TEXT
 62
4
100
AcDbText
 10
32.0
 20
-25.0
 30
0.0
 40
2.0
  1
-10.00
 50
90.0
  7
ARIAL
 72
1
 11
32.0
 21
-25.0
 31
0.0
100
AcDbText
 73
2
  0
LINE
  5
142
330
130
100
AcDbEntity
  8
GARIS_TABLE
100
AcDbLine
 10
32.0
 20
-5.0
 30
0.0
 11
32.0
 21
-10.0
 31
0.0
  0
LINE
  5
143
330
130
100
AcDbEntity
  8
GARIS_ELEV
100
AcDbLine
 10
32.0
 20
0.0
 30
0.0
 11
32.0
 21
27.0
 31
0.0
  0
LINE
  5
144
330
130
100
AcDbEntity
  8
GARIS_TABLE
100
AcDbLine
 10
32.0
 20
0.0
 30
0.0
 11
82.0
 21
0.0
 31
0.0
  0
LINE
  5
145
330
130
100
AcDbEntity
  8
GARIS_TABLE
100
AcDbLine
 10
32.0
 20
-5.0
 30
0.0
 11
82.0
 21
-5.0
 31
0.0
  0
LINE
  5
146
330
130
100
AcDbEntity
  8
GARIS_TABLE
100
AcDbLine
 10
32.0
 20
-10.0
 30
0.0
 11
82.0
 21
-10.0
 31
0.0
  0
LINE
  5
147
330
130
100
AcDbEntity
  8
GARIS_TABLE
100
AcDbLine
 10
32.0
 20
-20.0
 30
0.0
 11
82.0
 21
-20.0
 31
0.0
  0
LINE
  5
148
330
130
100
AcDbEntity
  8
GARIS_TABLE
100
AcDbLine
 10
32.0
 20
-30.0
 30
0.0
 11
82.0
 21
-30.0
 31
0.0
  0
TEXT
  5
149
330
130
100
AcDbEntity
  8
TEXT
 62
4
100
AcDbText
 10
57.0
 20
-7.5
 30
0.0
 40
2.0
  1
5.00
  7
ARIAL
 72
1
 11
57.0
 21
-7.5
 31
0.0
100
AcDbText
 73
2
  0
LINE
  5
14A
330
130
100
AcDbEntity
  8
GARIS_ELEV
100
AcDbLine
 10
32.0
 20
27.0
 30
0.0
 11
82.0
 21
2.0
 31
0.0
  0
TEXT
  5
14B
330
130
100
AcDbEntity
  8
TEXT
100
AcDbText
 10
82.0
 20
-2.5
 30
0.0
 40
2.0
  1
L1
  7
ARIAL
 72
1
 11
82.0
 21
-2.5
 31
0.0
100
AcDbText
 73
2
  0
TEXT
  5
14C
330
130
100
AcDbEntity
  8
TEXT
 62
4
100
AcDbText
 10
82.0
 20
-15.0
 30
0.0
 40
2.0
  1
52.5
 50
90.0
  7
ARIAL
 72
1
 11
82.0
 21
-15.0
 31
0.0
100
AcDbText
 73
2
  0
TEXT
  5
14D
330
130
100
AcDbEntity
  8
TEXT
 62
4
100
AcDbText
 10
82.0
 20
-25.0
 30
0.0
 40
2.0
  1
-5.00
 50
90.0
  7
ARIAL
 72
1
 11
82.0
 21
-25.0
 31
0.0
100
AcDbText
 73
2
  0
LINE
  5
14E
330
130
100
AcDbEntity
  8
GARIS_TABLE
100
AcDbLine
 10
82.0
 20
-5.0
 30
0.0
 11
82.0
 21
-10.0
 31
0.0
  0
LINE
  5
14F
330
130
100
AcDbEntity
  8
GARIS_ELEV
100
AcDbLine
 10
82.0
 20
0.0
 30
0.0
 11
82.0
 21
2.0
 31
0.0
  0
LINE
  5
150
330
130
100
AcDbEntity
  8
GARIS_TABLE
100
AcDbLine
 10
82.0
 20
0.0
 30
0.0
 11
132.0
 21
0.0
 31
0.0
  0
LINE
  5
151
330
130
100
AcDbEntity
  8
GARIS_TABLE
100
AcDbLine
 10
82.0
 20
-5.0
 30
0.0
 11
132.0
 21
-5.0
 31
0.0
  0
LINE
  5
152
330
130
100
AcDbEntity
  8
GARIS_TABLE
100
AcDbLine
 10
82.0
 20
-10.0
 30
0.0
 11
132.0
 21
-10.0
 31
0.0
  0
LINE
  5
153
330
130
100
AcDbEntity
  8
GARIS_TABLE
100
AcDbLine
 10
82.0
 20
-20.0
 30
0.0
 11
132.0
 21
-20.0
 31
0.0
  0
LINE
  5
154
330
130
100
AcDbEntity
  8
GARIS_TABLE
100
AcDbLine
 10
82.0
 20
-30.0
 30
0.0
 11
132.0
 21
-30.0
 31
0.0
  0
TEXT
  5
155
330
130
100
AcDbEntity
  8
TEXT
 62
4
100
AcDbText
 10
107.0
 20
-7.5
 30
0.0
 40
2.0
  1
5.00
  7
ARIAL
 72
1
 11
107.0
 21
-7.5
 31
0.0
100
AcDbText
 73
2
  0
LINE
  5
156
330
130
100
AcDbEntity
  8
GARIS_ELEV
100
AcDbLine
 10
82.0
 20
2.0
 30
0.0
 11
132.0
 21
4.0
 31
0.0
  0
TEXT
  5
157
330
130
100
AcDbEntity
  8
TEXT
100
AcDbText
 10
132.0
 20
-2.5
 30
0.0
 40
2.0
  1
STA 4
  7
ARIAL
 72
1
 11
132.0
 21
-2.5
 31
0.0
100
AcDbText
 73
2
  0
TEXT
  5
158
330
130
100
AcDbEntity
  8
TEXT
 62
4
100
AcDbText
 10
132.0
 20
-15.0
 30
0.0
 40
2.0
  1
52.7
 50
90.0
  7
ARIAL
 72
1
 11
132.0
 21
-15.0
 31
0.0
100
AcDbText
 73
2
  0
TEXT
  5
159
330
130
100
AcDbEntity
  8
TEXT
 62
4
100
AcDbText
 10
132.0
 20
-25.0
 30
0.0
 40
2.0
  1
0.00
 50
90.0
  7
ARIAL
 72
1
 11
132.0
 21
-25.0
 31
0.0
100
AcDbText
 73
2
  0
LINE
  5
15A
330
130
100
AcDbEntity
  8
GARIS_TABLE
100
AcDbLine
 10
132.0
 20
-5.0
 30
0.0
 11
132.0
 21
-10.0
 31
0.0
  0
LINE
  5
15B
330
130
100
AcDbEntity
  8
GARIS_ELEV
100
AcDbLine
 10
132.0
 20
0.0
 30
0.0
 11
132.0
 21
4.0
 31
0.0
  0
LINE
  5
15C
330
130
100
AcDbEntity
  8
GARIS_TABLE
100
AcDbLine
 10
132.0
 20
0.0
 30
0.0
 11
182.0
 21
0.0
 31
0.0
  0
LINE
  5
15D
330
130
100
AcDbEntity
  8
GARIS_TABLE
100
AcDbLine
 10
132.0
 20
-5.0
 30
0.0
 11
182.0
 21
-5.0
 31
0.0
  0
LINE
  5
15E
330
130
100
AcDbEntity
  8
GARIS_TABLE
100
AcDbLine
 10
132.0
 20
-10.0
 30
0.0
 11
182.0
 21
-10.0
 31
0.0
  0
LINE
  5
15F
330
130
100
AcDbEntity
  8
GARIS_TABLE
100
AcDbLine
 10
132.0
 20
-20.0
 30
0.0
 11
182.0
 21
-20.0
 31
0.0
  0
LINE
  5
160
330
130
100
AcDbEntity
  8
GARIS_TABLE
100
AcDbLine
 10
132.0
 20
-30.0
 30
0.0
 11
182.0
 21
-30.0
 31
0.0
  0
TEXT
  5
161
330
130
100
AcDbEntity
  8
TEXT
 62
4
100
AcDbText
 10
157.0
 20
-7.5
 30
0.0
 40
2.0
  1
5.00
  7
ARIAL
 72
1
 11
157.0
 21
-7.5
 31
0.0
100
AcDbText
 73
2
  0
LINE
  5
162
330
130
100
AcDbEntity
  8
GARIS_ELEV
100
AcDbLine
 10
132.0
 20
4.0
 30
0.0
 11
182.0
 21
2.0
 31
0.0
  0
TEXT
  5
163
330
130
100
AcDbEntity
  8
TEXT
100
AcDbText
 10
182.0
 20
-2.5
 30
0.0
 40
2.0
  1
R1
  7
ARIAL
 72
1
 11
182.0
 21
-2.5
 31
0.0
100
AcDbText
 73
2
  0
TEXT
  5
164
330
130
100
AcDbEntity
  8
TEXT
 62
4
100
AcDbText
 10
182.0
 20
-15.0
 30
0.0
 40
2.0
  1
52.5
 50
90.0
  7
ARIAL
 72
1
 11
182.0
 21
-15.0
 31
0.0
100
AcDbText
 73
2
  0
TEXT
  5
165
330
130
100
AcDbEntity
  8
TEXT
 62
4
100
AcDbText
 10
182.0
 20
-25.0
 30
0.0
 40
2.0
  1
5.00
 50
90.0
  7
ARIAL
 72
1
 11
182.0
 21
-25.0
 31
0.0
100
AcDbText
 73
2
  0
LINE
  5
166
330
130
100
AcDbEntity
  8
GARIS_TABLE
100
AcDbLine
 10
182.0
 20
-5.0
 30
0.0
 11
182.0
 21
-10.0
 31
0.0
  0
LINE
  5
167
330
130
100
AcDbEntity
  8
GARIS_ELEV
100
AcDbLine
 10
182.0
 20
0.0
 30
0.0
 11
182.0
 21
2.0
 31
0.0
  0
LINE
  5
168
330
130
100
AcDbEntity
  8
GARIS_TABLE
100
AcDbLine
 10
182.0
 20
0.0
 30
0.0
 11
232.0
 21
0.0
 31
0.0
  0
LINE
  5
169
330
130
100
AcDbEntity
  8
GARIS_TABLE
100
AcDbLine
 10
182.0
 20
-5.0
 30
0.0
 11
232.0
 21
-5.0
 31
0.0
  0
LINE
  5
16A
330
130
100
AcDbEntity
  8
GARIS_TABLE
100
AcDbLine
 10
182.0
 20
-10.0
 30
0.0
 11
232.0
 21
-10.0
 31
0.0
  0
LINE
  5
16B
330
130
100
AcDbEntity
  8
GARIS_TABLE
100
AcDbLine
 10
182.0
 20
-20.0
 30
0.0
 11
232.0
 21
-20.0
 31
0.0
  0
LINE
  5
16C
330
130
100
AcDbEntity
  8
GARIS_TABLE
100
AcDbLine
 10
182.0
 20
-30.0
 30
0.0
 11
232.0
 21
-30.0
 31
0.0
  0
TEXT
  5
16D
330
130
100
AcDbEntity
  8
TEXT
 62
4
100
AcDbText
 10
207.0
 20
-7.5
 30
0.0
 40
2.0
  1
5.00
  7
ARIAL
 72
1
 11
207.0
 21
-7.5
 31
0.0
100
AcDbText
 73
2
  0
LINE
  5
16E
330
130
100
AcDbEntity
  8
GARIS_ELEV
100
AcDbLine
 10
182.0
 20
2.0
 30
0.0
 11
232.0
 21
25.0
 31
0.0
  0
LINE
  5
16F
330
130
100
AcDbEntity
  8
GARIS_TABLE
100
AcDbLine
 10
235.0
 20
0.0
 30
0.0
 11
235.0
 21
-30.0
 31
0.0
  0
LINE
  5
170
330
130
100
AcDbEntity
  8
GARIS_TABLE
100
AcDbLine
 10
232.0
 20
0.0
 30
0.0
 11
235.0
 21
0.0
 31
0.0
  0
LINE
  5
171
330
130
100
AcDbEntity
  8
GARIS_TABLE
100
AcDbLine
 10
232.0
 20
-5.0
 30
0.0
 11
235.0
 21
-5.0
 31
0.0
  0
LINE
  5
172
330
130
100
AcDbEntity
  8
GARIS_TABLE
100
AcDbLine
 10
232.0
 20
-10.0
 30
0.0
 11
235.0
 21
-10.0
 31
0.0
  0
LINE
  5
173
330
130
100
AcDbEntity
  8
GARIS_TABLE
100
AcDbLine
 10
232.0
 20
-20.0
 30
0.0
 11
235.0
 21
-20.0
 31
0.0
  0
LINE
  5
174
330
130
100
AcDbEntity
  8
GARIS_TABLE
100
AcDbLine
 10
232.0
 20
-30.0
 30
0.0
 11
235.0
 21
-30.0
 31
0.0
  0
TEXT
  5
175
330
130
100
AcDbEntity
  8
TEXT
370
0
100
AcDbText
 10
116.0
 20
-40.0
 30
0.0
 40
3.5
  1
STA 4
  7
ARIAL
 72
1
 11
116.0
 21
-40.0
 31
0.0
100
AcDbText
 73
2
  0
TEXT
  5
176
330
130
100
AcDbEntity
  8
TEXT
100
AcDbText
 10
232.0
 20
-2.5
 30
0.0
 40
2.0
  1
R2
  7
ARIAL
 72
1
 11
232.0
 21
-2.5
 31
0.0
100
AcDbText
 73
2
  0
TEXT
  5
177
330
130
100
AcDbEntity
  8
TEXT
 62
4
100
AcDbText
 10
232.0
 20
-15.0
 30
0.0
 40
2.0
  1
54.8
 50
90.0
  7
ARIAL
 72
1
 11
232.0
 21
-15.0
 31
0.0
100
AcDbText
 73
2
  0
TEXT
  5
178
330
130
100
AcDbEntity
  8
TEXT
 62
4
100
AcDbText
 10
232.0
 20
-25.0
 30
0.0
 40
2.0
  1
10.00
 50
90.0
  7
ARIAL
 72
1
 11
232.0
 21
-25.0
 31
0.0
100
AcDbText
 73
2
  0
LINE
  5
179
330
130
100
AcDbEntity
  8
GARIS_TABLE
100
AcDbLine
 10
232.0
 20
-5.0
 30
0.0
 11
232.0
 21
-10.0
 31
0.0
  0
LINE
  5
17A
330
130
100
AcDbEntity
  8
GARIS_ELEV
100
AcDbLine
 10
232.0
 20
0.0
 30
0.0
 11
232.0
 21
25.0
 31
0.0
  0
ENDBLK
  5
132
330
130
100
AcDbEntity
  8
0
100
AcDbBlockEnd
  0
BLOCK
  5
17C
330
17B
100
AcDbEntity
  8
0
100
AcDbBlockBegin
  2
DATA_SURVEY_5
 70
0
 10
0.0
 20
-42.72169167803547
 30
0.0
  3
DATA_SURVEY_5
  1

  0
TEXT
  5
17E
330
17B
100
AcDbEntity
  8
TEXT
100
AcDbText
 10
2.0
 20
-7.5
 30
0.0
 40
2.5
  1
JARAK (M)
  7
ARIAL
 11
2.0
 21
-7.5
 31
0.0
100
AcDbText
 73
2
  0
TEXT
  5
17F
330
17B
100
AcDbEntity
  8
TEXT
100
AcDbText
 10
2.0
 20
-15.0
 30
0.0
 40
2.5
  1
ELEVASI (M)
  7
ARIAL
 11
2.0
 21
-15.0
 31
0.0
100
AcDbText
 73
2
  0
TEXT
  5
180
330
17B
100
AcDbEntity
  8
TEXT
100
AcDbText
 10
2.0
 20
-25.0
 30
0.0
 40
2.5
  1
JARAK K (M)
  7
ARIAL
 11
2.0
 21
-25.0
 31
0.0
100
AcDbText
 73
2
  0
TEXT
  5
181
330
17B
100
AcDbEntity
  8
TEXT
100
AcDbText
 10
2.0
 20
-2.5
 30
0.0
 40
2.5
  1
TITIK
  7
ARIAL
 11
2.0
 21
-2.5
 31
0.0
100
AcDbText
 73
2
  0
TEXT
  5
182
330
17B
100
AcDbEntity
  8
TEXT
100
AcDbText
 10
2.0
 20
2.5
 30
0.0
 40
2.5
  1
DL = 50M
  7
ARIAL
 11
2.0
 21
2.5
 31
0.0
100
AcDbText
 73
2
  0
LINE
  5
183
330
17B
100
AcDbEntity
  8
GARIS_TABLE
100
AcDbLine
 10
0.0
 20
0.0
 30
0.0
 11
32.0
 21
0.0
 31
0.0
  0
LINE
  5
184
330
17B
100
AcDbEntity
  8
GARIS_TABLE
100
AcDbLine
 10
0.0
 20
-5.0
 30
0.0
 11
32.0
 21
-5.0
 31
0.0
  0
LINE
  5
185
330
17B
100
AcDbEntity
  8
GARIS_TABLE
100
AcDbLine
 10
0.0
 20
-10.0
 30
0.0
 11
32.0
 21
-10.0
 31
0.0
  0
LINE
  5
186
330
17B
100
AcDbEntity
  8
GARIS_TABLE
100
AcDbLine
 10
0.0
 20
-20.0
 30
0.0
 11
32.0
 21
-20.0
 31
0.0
  0
LINE
  5
187
330
17B
100
AcDbEntity
  8
GARIS_TABLE
100
AcDbLine
 10
0.0
 20
-30.0
 30
0.0
 11
32.0
 21
-30.0
 31
0.0
  0
LINE
  5
188
330
17B
100
AcDbEntity
  8
GARIS_TABLE
100
AcDbLine
 10
0.0
 20
0.0
 30
0.0
 11
0.0
 21
-30.0
 31
0.0
  0
LINE
  5
189
330
17B
100
AcDbEntity
  8
GARIS_TABLE
100
AcDbLine
 10
29.0
 20
0.0
 30
0.0
 11
29.0
 21
-30.0
 31
0.0
  0
TEXT
  5
18A
330
17B
100
AcDbEntity
  8
TEXT
100
AcDbText
 10
32.0
 20
-2.5
 30
0.0
 40
2.0
  1
L1
  7
ARIAL
 72
1
 11
32.0
 21
-2.5
 31
0.0
100
AcDbText
 73
2
  0
TEXT
  5
18B
330
17B
100
AcDbEntity
  8
TEXT
 62
4
100
AcDbText
 10
32.0
 20
-15.0
 30
0.0
 40
2.0
  1
53.5
 50
90.0
  7
ARIAL
 72
1
 11
32.0
 21
-15.0
 31
0.0
100
AcDbText
 73
2
  0
TEXT
  5
18C
330
17B
100
AcDbEntity
  8
TEXT
 62
4
100
AcDbText
 10
32.0
 20
-25.0
 30
0.0
 40
2.0
  1
-5.00
 50
90.0
  7
ARIAL
 72
1
 11
32.0
 21
-25.0
 31
0.0
100
AcDbText
 73
2
  0
LINE
  5
18D
330
17B
100
AcDbEntity
  8
GARIS_TABLE
100
AcDbLine
 10
32.0
 20
-5.0
 30
0.0
 11
32.0
 21
-10.0
 31
0.0
  0
LINE
  5
18E
330
17B
100
AcDbEntity
  8
GARIS_ELEV
100
AcDbLine
 10
32.0
 20
0.0
 30
0.0
 11
32.0
 21
10.0
 31
0.0
  0
LINE
  5
18F
330
17B
100
AcDbEntity
  8
GARIS_TABLE
100
AcDbLine
 10
32.0
 20
0.0
 30
0.0
 11
82.0
 21
0.0
 31
0.0
  0
LINE
  5
190
330
17B
100
AcDbEntity
  8
GARIS_TABLE
100
AcDbLine
 10
32.0
 20
-5.0
 30
0.0
 11
82.0
 21
-5.0
 31
0.0
  0
LINE
  5
191
330
17B
100
AcDbEntity
  8
GARIS_TABLE
100
AcDbLine
 10
32.0
 20
-10.0
 30
0.0
 11
82.0
 21
-10.0
 31
0.0
  0
LINE
  5
192
330
17B
100
AcDbEntity
  8
GARIS_TABLE
100
AcDbLine
 10
32.0
 20
-20.0
 30
0.0
 11
82.0
 21
-20.0
 31
0.0
  0
LINE
  5
193
330
17B
100
AcDbEntity
  8
GARIS_TABLE
100
AcDbLine
 10
32.0
 20
-30.0
 30
0.0
 11
82.0
 21
-30.0
 31
0.0
  0
TEXT
  5
194
330
17B
100
AcDbEntity
  8
TEXT
 62
4
100
AcDbText
 10
57.0
 20
-7.5
 30
0.0
 40
2.0
  1
5.00
  7
ARIAL
 72
1
 11
57.0
 21
-7.5
 31
0.0
100
AcDbText
 73
2
  0
LINE
  5
195
330
17B
100
AcDbEntity
  8
GARIS_ELEV
100
AcDbLine
 10
32.0
 20
10.0
 30
0.0
 11
82.0
 21
6.0
 31
0.0
  0
TEXT
  5
196
330
17B
100
AcDbEntity
  8
TEXT
100
AcDbText
 10
82.0
 20
-2.5
 30
0.0
 40
2.0
  1
STA 5
  7
ARIAL
 72
1
 11
82.0
 21
-2.5
 31
0.0
100
AcDbText
 73
2
  0
TEXT
  5
197
330
17B
100
AcDbEntity
  8
TEXT
 62
4
100
AcDbText
 10
82.0
 20
-15.0
 30
0.0
 40
2.0
  1
53.1
 50
90.0
  7
ARIAL
 72
1
 11
82.0
 21
-15.0
 31
0.0
100
AcDbText
 73
2
  0
TEXT
  5
198
330
17B
100
AcDbEntity
  8
TEXT
 62
4
100
AcDbText
 10
82.0
 20
-25.0
 30
0.0
 40
2.0
  1
0.00
 50
90.0
  7
ARIAL
 72
1
 11
82.0
 21
-25.0
 31
0.0
100
AcDbText
 73
2
  0
LINE
  5
199
330
17B
100
AcDbEntity
  8
GARIS_TABLE
100
AcDbLine
 10
82.0
 20
-5.0
 30
0.0
 11
82.0
 21
-10.0
 31
0.0
  0
LINE
  5
19A
330
17B
100
AcDbEntity
  8
GARIS_ELEV
100
AcDbLine
 10
82.0
 20
0.0
 30
0.0
 11
82.0
 21
6.0
 31
0.0
  0
LINE
  5
19B
330
17B
100
AcDbEntity
  8
GARIS_TABLE
100
AcDbLine
 10
82.0
 20
0.0
 30
0.0
 11
132.0
 21
0.0
 31
0.0
  0
LINE
  5
19C
330
17B
100
AcDbEntity
  8
GARIS_TABLE
100
AcDbLine
 10
82.0
 20
-5.0
 30
0.0
 11
132.0
 21
-5.0
 31
0.0
  0
LINE
  5
19D
330
17B
100
AcDbEntity
  8
GARIS_TABLE
100
AcDbLine
 10
82.0
 20
-10.0
 30
0.0
 11
132.0
 21
-10.0
 31
0.0
  0
LINE
  5
19E
330
17B
100
AcDbEntity
  8
GARIS_TABLE
100
AcDbLine
 10
82.0
 20
-20.0
 30
0.0
 11
132.0
 21
-20.0
 31
0.0
  0
LINE
  5
19F
330
17B
100
AcDbEntity
  8
GARIS_TABLE
100
AcDbLine
 10
82.0
 20
-30.0
 30
0.0
 11
132.0
 21
-30.0
 31
0.0
  0
TEXT
  5
1A0
330
17B
100
AcDbEntity
  8
TEXT
 62
4
100
AcDbText
 10
107.0
 20
-7.5
 30
0.0
 40
2.0
  1
5.00
  7
ARIAL
 72
1
 11
107.0
 21
-7.5
 31
0.0
100
AcDbText
 73
2
  0
LINE
  5
1A1
330
17B
100
AcDbEntity
  8
GARIS_ELEV
100
AcDbLine
 10
82.0
 20
6.0
 30
0.0
 11
132.0
 21
2.0
 31
0.0
  0
LINE
  5
1A2
330
17B
100
AcDbEntity
  8
GARIS_TABLE
100
AcDbLine
 10
135.0
 20
0.0
 30
0.0
 11
135.0
 21
-30.0
 31
0.0
  0
LINE
  5
1A3
330
17B
100
AcDbEntity
  8
GARIS_TABLE
100
AcDbLine
 10
132.0
 20
0.0
 30
0.0
 11
135.0
 21
0.0
 31
0.0
  0
LINE
  5
1A4
330
17B
100
AcDbEntity
  8
GARIS_TABLE
100
AcDbLine
 10
132.0
 20
-5.0
 30
0.0
 11
135.0
 21
-5.0
 31
0.0
  0
LINE
  5
1A5
330
17B
100
AcDbEntity
  8
GARIS_TABLE
100
AcDbLine
 10
132.0
 20
-10.0
 30
0.0
 11
135.0
 21
-10.0
 31
0.0
  0
LINE
  5
1A6
330
17B
100
AcDbEntity
  8
GARIS_TABLE
100
AcDbLine
 10
132.0
 20
-20.0
 30
0.0
 11
135.0
 21
-20.0
 31
0.0
  0
LINE
  5
1A7
330
17B
100
AcDbEntity
  8
GARIS_TABLE
100
AcDbLine
 10
132.0
 20
-30.0
 30
0.0
 11
135.0
 21
-30.0
 31
0.0
  0
TEXT
  5
1A8
330
17B
100
AcDbEntity
  8
TEXT
370
0
100
AcDbText
 10
66.0
 20
-40.0
 30
0.0
 40
3.5
  1
STA 5
  7
ARIAL
 72
1
 11
66.0
 21
-40.0
 31
0.0
100
AcDbText
 73
2
  0
TEXT
  5
1A9
330
17B
100
AcDbEntity
  8
TEXT
100
AcDbText
 10
132.0
 20
-2.5
 30
0.0
 40
2.0
  1
R1
  7
ARIAL
 72
1
 11
132.0
 21
-2.5
 31
0.0
100
AcDbText
 73
2
  0
TEXT
  5
1AA
330
17B
100
AcDbEntity
  8
TEXT
 62
4
100
AcDbText
 10
132.0
 20
-15.0
 30
0.0
 40
2.0
  1
52.7
 50
90.0
  7
ARIAL
 72
1
 11
132.0
 21
-15.0
 31
0.0
100
AcDbText
 73
2
  0
TEXT
  5
1AB
330
17B
100
AcDbEntity
  8
TEXT
 62
4
100
AcDbText
 10
132.0
 20
-25.0
 30
0.0
 40
2.0
  1
5.00
 50
90.0
  7
ARIAL
 72
1
 11
132.0
 21
-25.0
 31
0.0
100
AcDbText
 73
2
  0
LINE
  5
1AC
330
17B
100
AcDbEntity
  8
GARIS_TABLE
100
AcDbLine
 10
132.0
 20
-5.0
 30
0.0
 11
132.0
 21
-10.0
 31
0.0
  0
LINE
  5
1AD
330
17B
100
AcDbEntity
  8
GARIS_ELEV
100
AcDbLine
 10
132.0
 20
0.0
 30
0.0
 11
132.0
 21
2.0
 31
0.0
  0
ENDBLK
  5
17D
330
17B
100
AcDbEntity
  8
0
100
AcDbBlockEnd
  0
BLOCK
  5
1AF
330
1AE
100
AcDbEntity
  8
0
100
AcDbBlockBegin
  2
DATA_SURVEY_6
 70
0
 10
0.0
 20
-42.72169167803547
 30
0.0
  3
DATA_SURVEY_6
  1

  0
TEXT
  5
1B1
330
1AE
100
AcDbEntity
  8
TEXT
100
AcDbText
 10
2.0
 20
-7.5
 30
0.0
 40
2.5
  1
JARAK (M)
  7
ARIAL
 11
2.0
 21
-7.5
 31
0.0
100
AcDbText
 73
2
  0
TEXT
  5
1B2
330
1AE
100
AcDbEntity
  8
TEXT
100
AcDbText
 10
2.0
 20
-15.0
 30
0.0
 40
2.5
  1
ELEVASI (M)
  7
ARIAL
 11
2.0
 21
-15.0
 31
0.0
100
AcDbText
 73
2
  0
TEXT
  5
1B3
330
1AE
100
AcDbEntity
  8
TEXT
100
AcDbText
 10
2.0
 20
-25.0
 30
0.0
 40
2.5
  1
JARAK K (M)
  7
ARIAL
 11
2.0
 21
-25.0
 31
0.0
100
AcDbText
 73
2
  0
TEXT
  5
1B4
330
1AE
100
AcDbEntity
  8
TEXT
100
AcDbText
 10
2.0
 20
-2.5
 30
0.0
 40
2.5
  1
TITIK
  7
ARIAL
 11
2.0
 21
-2.5
 31
0.0
100
AcDbText
 73
2
  0
TEXT
  5
1B5
330
1AE
100
AcDbEntity
  8
TEXT
100
AcDbText
 10
2.0
 20
2.5
 30
0.0
 40
2.5
  1
DL = 50M
  7
ARIAL
 11
2.0
 21
2.5
 31
0.0
100
AcDbText
 73
2
  0
LINE
  5
1B6
330
1AE
100
AcDbEntity
  8
GARIS_TABLE
100
AcDbLine
 10
0.0
 20
0.0
 30
0.0
 11
32.0
 21
0.0
 31
0.0
  0
LINE
  5
1B7
330
1AE
100
AcDbEntity
  8
GARIS_TABLE
100
AcDbLine
 10
0.0
 20
-5.0
 30
0.0
 11
32.0
 21
-5.0
 31
0.0
  0
LINE
  5
1B8
330
1AE
100
AcDbEntity
  8
GARIS_TABLE
100
AcDbLine
 10
0.0
 20
-10.0
 30
0.0
 11
32.0
 21
-10.0
 31
0.0
  0
LINE
  5
1B9
330
1AE
100
AcDbEntity
  8
GARIS_TABLE
100
AcDbLine
 10
0.0
 20
-20.0
 30
0.0
 11
32.0
 21
-20.0
 31
0.0
  0
LINE
  5
1BA
330
1AE
100
AcDbEntity
  8
GARIS_TABLE
100
AcDbLine
 10
0.0
 20
-30.0
 30
0.0
 11
32.0
 21
-30.0
 31
0.0
  0
LINE
  5
1BB
330
1AE
100
AcDbEntity
  8
GARIS_TABLE
100
AcDbLine
 10
0.0
 20
0.0
 30
0.0
 11
0.0
 21
-30.0
 31
0.0
  0
LINE
  5
1BC
330
1AE
100
AcDbEntity
  8
GARIS_TABLE
100
AcDbLine
 10
29.0
 20
0.0
 30
0.0
 11
29.0
 21
-30.0
 31
0.0
  0
TEXT
  5
1BD
330
1AE
100
AcDbEntity
  8
TEXT
100
AcDbText
 10
32.0
 20
-2.5
 30
0.0
 40
2.0
  1
L1
  7
ARIAL
 72
1
 11
32.0
 21
-2.5
 31
0.0
100
AcDbText
 73
2
  0
TEXT
  5
1BE
330
1AE
100
AcDbEntity
  8
TEXT
 62
4
100
AcDbText
 10
32.0
 20
-15.0
 30
0.0
 40
2.0
  1
53.6
 50
90.0
  7
ARIAL
 72
1
 11
32.0
 21
-15.0
 31
0.0
100
AcDbText
 73
2
  0
TEXT
  5
1BF
330
1AE
100
AcDbEntity
  8
TEXT
 62
4
100
AcDbText
 10
32.0
 20
-25.0
 30
0.0
 40
2.0
  1
-4.00
 50
90.0
  7
ARIAL
 72
1
 11
32.0
 21
-25.0
 31
0.0
100
AcDbText
 73
2
  0
LINE
  5
1C0
330
1AE
100
AcDbEntity
  8
GARIS_TABLE
100
AcDbLine
 10
32.0
 20
-5.0
 30
0.0
 11
32.0
 21
-10.0
 31
0.0
  0
LINE
  5
1C1
330
1AE
100
AcDbEntity
  8
GARIS_ELEV
100
AcDbLine
 10
32.0
 20
0.0
 30
0.0
 11
32.0
 21
10.0
 31
0.0
  0
LINE
  5
1C2
330
1AE
100
AcDbEntity
  8
GARIS_TABLE
100
AcDbLine
 10
32.0
 20
0.0
 30
0.0
 11
72.0
 21
0.0
 31
0.0
  0
LINE
  5
1C3
330
1AE
100
AcDbEntity
  8
GARIS_TABLE
100
AcDbLine
 10
32.0
 20
-5.0
 30
0.0
 11
72.0
 21
-5.0
 31
0.0
  0
LINE
  5
1C4
330
1AE
100
AcDbEntity
  8
GARIS_TABLE
100
AcDbLine
 10
32.0
 20
-10.0
 30
0.0
 11
72.0
 21
-10.0
 31
0.0
  0
LINE
  5
1C5
330
1AE
100
AcDbEntity
  8
GARIS_TABLE
100
AcDbLine
 10
32.0
 20
-20.0
 30
0.0
 11
72.0
 21
-20.0
 31
0.0
  0
LINE
  5
1C6
330
1AE
100
AcDbEntity
  8
GARIS_TABLE
100
AcDbLine
 10
32.0
 20
-30.0
 30
0.0
 11
72.0
 21
-30.0
 31
0.0
  0
TEXT
  5
1C7
330
1AE
100
AcDbEntity
  8
TEXT
 62
4
100
AcDbText
 10
52.0
 20
-7.5
 30
0.0
 40
2.0
  1
4.00
  7
ARIAL
 72
1
 11
52.0
 21
-7.5
 31
0.0
100
AcDbText
 73
2
  0
LINE
  5
1C8
330
1AE
100
AcDbEntity
  8
GARIS_ELEV
100
AcDbLine
 10
32.0
 20
10.0
 30
0.0
 11
72.0
 21
7.0
 31
0.0
  0
TEXT
  5
1C9
330
1AE
100
AcDbEntity
  8
TEXT
100
AcDbText
 10
72.0
 20
-2.5
 30
0.0
 40
2.0
  1
STA 6
  7
ARIAL
 72
1
 11
72.0
 21
-2.5
 31
0.0
100
AcDbText
 73
2
  0
TEXT
  5
1CA
330
1AE
100
AcDbEntity
  8
TEXT
 62
4
100
AcDbText
 10
72.0
 20
-15.0
 30
0.0
 40
2.0
  1
53.3
 50
90.0
  7
ARIAL
 72
1
 11
72.0
 21
-15.0
 31
0.0
100
AcDbText
 73
2
  0
TEXT
  5
1CB
330
1AE
100
AcDbEntity
  8
TEXT
 62
4
100
AcDbText
 10
72.0
 20
-25.0
 30
0.0
 40
2.0
  1
0.00
 50
90.0
  7
ARIAL
 72
1
 11
72.0
 21
-25.0
 31
0.0
100
AcDbText
 73
2
  0
LINE
  5
1CC
330
1AE
100
AcDbEntity
  8
GARIS_TABLE
100
AcDbLine
 10
72.0
 20
-5.0
 30
0.0
 11
72.0
 21
-10.0
 31
0.0
  0
LINE
  5
1CD
330
1AE
100
AcDbEntity
  8
GARIS_ELEV
100
AcDbLine
 10
72.0
 20
0.0
 30
0.0
 11
72.0
 21
7.0
 31
0.0
  0
LINE
  5
1CE
330
1AE
100
AcDbEntity
  8
GARIS_TABLE
100
AcDbLine
 10
72.0
 20
0.0
 30
0.0
 11
112.0
 21
0.0
 31
0.0
  0
LINE
  5
1CF
330
1AE
100
AcDbEntity
  8
GARIS_TABLE
100
AcDbLine
 10
72.0
 20
-5.0
 30
0.0
 11
112.0
 21
-5.0
 31
0.0
  0
LINE
  5
1D0
330
1AE
100
AcDbEntity
  8
GARIS_TABLE
100
AcDbLine
 10
72.0
 20
-10.0
 30
0.0
 11
112.0
 21
-10.0
 31
0.0
  0
LINE
  5
1D1
330
1AE
100
AcDbEntity
  8
GARIS_TABLE
100
AcDbLine
 10
72.0
 20
-20.0
 30
0.0
 11
112.0
 21
-20.0
 31
0.0
  0
LINE
  5
1D2
330
1AE
100
AcDbEntity
  8
GARIS_TABLE
100
AcDbLine
 10
72.0
 20
-30.0
 30
0.0
 11
112.0
 21
-30.0
 31
0.0
  0
TEXT
  5
1D3
330
1AE
100
AcDbEntity
  8
TEXT
 62
4
100
AcDbText
 10
92.0
 20
-7.5
 30
0.0
 40
2.0
  1
4.00
  7
ARIAL
 72
1
 11
92.0
 21
-7.5
 31
0.0
100
AcDbText
 73
2
  0
LINE
  5
1D4
330
1AE
100
AcDbEntity
  8
GARIS_ELEV
100
AcDbLine
 10
72.0
 20
7.0
 30
0.0
 11
112.0
 21
4.0
 31
0.0
  0
TEXT
  5
1D5
330
1AE
100
AcDbEntity
  8
TEXT
100
AcDbText
 10
112.0
 20
-2.5
 30
0.0
 40
2.0
  1
R1
  7
ARIAL
 72
1
 11
112.0
 21
-2.5
 31
0.0
100
AcDbText
 73
2
  0
TEXT
  5
1D6
330
1AE
100
AcDbEntity
  8
TEXT
 62
4
100
AcDbText
 10
112.0
 20
-15.0
 30
0.0
 40
2.0
  1
53.0
 50
90.0
  7
ARIAL
 72
1
 11
112.0
 21
-15.0
 31
0.0
100
AcDbText
 73
2
  0
TEXT
  5
1D7
330
1AE
100
AcDbEntity
  8
TEXT
 62
4
100
AcDbText
 10
112.0
 20
-25.0
 30
0.0
 40
2.0
  1
4.00
 50
90.0
  7
ARIAL
 72
1
 11
112.0
 21
-25.0
 31
0.0
100
AcDbText
 73
2
  0
LINE
  5
1D8
330
1AE
100
AcDbEntity
  8
GARIS_TABLE
100
AcDbLine
 10
112.0
 20
-5.0
 30
0.0
 11
112.0
 21
-10.0
 31
0.0
  0
LINE
  5
1D9
330
1AE
100
AcDbEntity
  8
GARIS_ELEV
100
AcDbLine
 10
112.0
 20
0.0
 30
0.0
 11
112.0
 21
4.0
 31
0.0
  0
LINE
  5
1DA
330
1AE
100
AcDbEntity
  8
GARIS_TABLE
100
AcDbLine
 10
112.0
 20
0.0
 30
0.0
 11
147.0
 21
0.0
 31
0.0
  0
LINE
  5
1DB
330
1AE
100
AcDbEntity
  8
GARIS_TABLE
100
AcDbLine
 10
112.0
 20
-5.0
 30
0.0
 11
147.0
 21
-5.0
 31
0.0
  0
LINE
  5
1DC
330
1AE
100
AcDbEntity
  8
GARIS_TABLE
100
AcDbLine
 10
112.0
 20
-10.0
 30
0.0
 11
147.0
 21
-10.0
 31
0.0
  0
LINE
  5
1DD
330
1AE
100
AcDbEntity
  8
GARIS_TABLE
100
AcDbLine
 10
112.0
 20
-20.0
 30
0.0
 11
147.0
 21
-20.0
 31
0.0
  0
LINE
  5
1DE
330
1AE
100
AcDbEntity
  8
GARIS_TABLE
100
AcDbLine
 10
112.0
 20
-30.0
 30
0.0
 11
147.0
 21
-30.0
 31
0.0
  0
TEXT
  5
1DF
330
1AE
100
AcDbEntity
  8
TEXT
 62
4
100
AcDbText
 10
129.5
 20
-7.5
 30
0.0
 40
2.0
  1
3.50
  7
ARIAL
 72
1
 11
129.5
 21
-7.5
 31
0.0
100
AcDbText
 73
2
  0
LINE
  5
1E0
330
1AE
100
AcDbEntity
  8
GARIS_ELEV
100
AcDbLine
 10
112.0
 20
4.0
 30
0.0
 11
147.0
 21
2.0
 31
0.0
  0
LINE
  5
1E1
330
1AE
100
AcDbEntity
  8
GARIS_TABLE
100
AcDbLine
 10
150.0
 20
0.0
 30
0.0
 11
150.0
 21
-30.0
 31
0.0
  0
LINE
  5
1E2
330
1AE
100
AcDbEntity
  8
GARIS_TABLE
100
AcDbLine
 10
147.0
 20
0.0
 30
0.0
 11
150.0
 21
0.0
 31
0.0
  0
LINE
  5
1E3
330
1AE
100
AcDbEntity
  8
GARIS_TABLE
100
AcDbLine
 10
147.0
 20
-5.0
 30
0.0
 11
150.0
 21
-5.0
 31
0.0
  0
LINE
  5
1E4
330
1AE
100
AcDbEntity
  8
GARIS_TABLE
100
AcDbLine
 10
147.0
 20
-10.0
 30
0.0
 11
150.0
 21
-10.0
 31
0.0
  0
LINE
  5
1E5
330
1AE
100
AcDbEntity
  8
GARIS_TABLE
100
AcDbLine
 10
147.0
 20
-20.0
 30
0.0
 11
150.0
 21
-20.0
 31
0.0
  0
LINE
  5
1E6
330
1AE
100
AcDbEntity
  8
GARIS_TABLE
100
AcDbLine
 10
147.0
 20
-30.0
 30
0.0
 11
150.0
 21
-30.0
 31
0.0
  0
TEXT
  5
1E7
330
1AE
100
AcDbEntity
  8
TEXT
370
0
100
AcDbText
 10
73.5
 20
-40.0
 30
0.0
 40
3.5
  1
STA 6
  7
ARIAL
 72
1
 11
73.5
 21
-40.0
 31
0.0
100
AcDbText
 73
2
  0
TEXT
  5
1E8
330
1AE
100
AcDbEntity
  8
TEXT
100
AcDbText
 10
147.0
 20
-2.5
 30
0.0
 40
2.0
  1
R2
  7
ARIAL
 72
1
 11
147.0
 21
-2.5
 31
0.0
100
AcDbText
 73
2
  0
TEXT
  5
1E9
330
1AE
100
AcDbEntity
  8
TEXT
 62
4
100
AcDbText
 10
147.0
 20
-15.0
 30
0.0
 40
2.0
  1
52.8
 50
90.0
  7
ARIAL
 72
1
 11
147.0
 21
-15.0
 31
0.0
100
AcDbText
 73
2
  0
TEXT
  5
1EA
330
1AE
100
AcDbEntity
  8
TEXT
 62
4
100
AcDbText
 10
147.0
 20
-25.0
 30
0.0
 40
2.0
  1
7.50
 50
90.0
  7
ARIAL
 72
1
 11
147.0
 21
-25.0
 31
0.0
100
AcDbText
 73
2
  0
LINE
  5
1EB
330
1AE
100
AcDbEntity
  8
GARIS_TABLE
100
AcDbLine
 10
147.0
 20
-5.0
 30
0.0
 11
147.0
 21
-10.0
 31
0.0
  0
LINE
  5
1EC
330
1AE
100
AcDbEntity
  8
GARIS_ELEV
100
AcDbLine
 10
147.0
 20
0.0
 30
0.0
 11
147.0
 21
2.0
 31
0.0
  0
ENDBLK
  5
1B0
330
1AE
100
AcDbEntity
  8
0
100
AcDbBlockEnd
  0
BLOCK
  5
1EE
330
1ED
100
AcDbEntity
  8
0
100
AcDbBlockBegin
  2
DATA_SURVEY_7
 70
0
 10
0.0
 20
-42.72169167803547
 30
0.0
  3
DATA_SURVEY_7
  1

  0
TEXT
  5
1F0
330
1ED
100
AcDbEntity
  8
TEXT
100
AcDbText
 10
2.0
 20
-7.5
 30
0.0
 40
2.5
  1
JARAK (M)
  7
ARIAL
 11
2.0
 21
-7.5
 31
0.0
100
AcDbText
 73
2
  0
TEXT
  5
1F1
330
1ED
100
AcDbEntity
  8
TEXT
100
AcDbText
 10
2.0
 20
-15.0
 30
0.0
 40
2.5
  1
ELEVASI (M)
  7
ARIAL
 11
2.0
 21
-15.0
 31
0.0
100
AcDbText
 73
2
  0
TEXT
  5
1F2
330
1ED
100
AcDbEntity
  8
TEXT
100
AcDbText
 10
2.0
 20
-25.0
 30
0.0
 40
2.5
  1
JARAK K (M)
  7
ARIAL
 11
2.0
 21
-25.0
 31
0.0
100
AcDbText
 73
2
  0
TEXT
  5
1F3
330
1ED
100
AcDbEntity
  8
TEXT
100
AcDbText
 10
2.0
 20
-2.5
 30
0.0
 40
2.5
  1
TITIK
  7
ARIAL
 11
2.0
 21
-2.5
 31
0.0
100
AcDbText
 73
2
  0
TEXT
  5
1F4
330
1ED
100
AcDbEntity
  8
TEXT
100
AcDbText
 10
2.0
 20
2.5
 30
0.0
 40
2.5
  1
DL = 47M
  7
ARIAL
 11
2.0
 21
2.5
 31
0.0
100
AcDbText
 73
2
  0
LINE
  5
1F5
330
1ED
100
AcDbEntity
  8
GARIS_TABLE
100
AcDbLine
 10
0.0
 20
0.0
 30
0.0
 11
32.0
 21
0.0
 31
0.0
  0
LINE
  5
1F6
330
1ED
100
AcDbEntity
  8
GARIS_TABLE
100
AcDbLine
 10
0.0
 20
-5.0
 30
0.0
 11
32.0
 21
-5.0
 31
0.0
  0
LINE
  5
1F7
330
1ED
100
AcDbEntity
  8
GARIS_TABLE
100
AcDbLine
 10
0.0
 20
-10.0
 30
0.0
 11
32.0
 21
-10.0
 31
0.0
  0
LINE
  5
1F8
330
1ED
100
AcDbEntity
  8
GARIS_TABLE
100
AcDbLine
 10
0.0
 20
-20.0
 30
0.0
 11
32.0
 21
-20.0
 31
0.0
  0
LINE
  5
1F9
330
1ED
100
AcDbEntity
  8
GARIS_TABLE
100
AcDbLine
 10
0.0
 20
-30.0
 30
0.0
 11
32.0
 21
-30.0
 31
0.0
  0
LINE
  5
1FA
330
1ED
100
AcDbEntity
  8
GARIS_TABLE
100
AcDbLine
 10
0.0
 20
0.0
 30
0.0
 11
0.0
 21
-30.0
 31
0.0
  0
LINE
  5
1FB
330
1ED
100
AcDbEntity
  8
GARIS_TABLE
100
AcDbLine
 10
29.0
 20
0.0
 30
0.0
 11
29.0
 21
-30.0
 31
0.0
  0
TEXT
  5
1FC
330
1ED
100
AcDbEntity
  8
TEXT
100
AcDbText
 10
32.0
 20
-2.5
 30
0.0
 40
2.0
  1
L2
  7
ARIAL
 72
1
 11
32.0
 21
-2.5
 31
0.0
100
AcDbText
 73
2
  0
TEXT
  5
1FD
330
1ED
100
AcDbEntity
  8
TEXT
 62
4
100
AcDbText
 10
32.0
 20
-15.0
 30
0.0
 40
2.0
  1
58.0
 50
90.0
  7
ARIAL
 72
1
 11
32.0
 21
-15.0
 31
0.0
100
AcDbText
 73
2
  0
TEXT
  5
1FE
330
1ED
100
AcDbEntity
  8
TEXT
 62
4
100
AcDbText
 10
32.0
 20
-25.0
 30
0.0
 40
2.0
  1
-12.00
 50
90.0
  7
ARIAL
 72
1
 11
32.0
 21
-25.0
 31
0.0
100
AcDbText
 73
2
  0
LINE
  5
1FF
330
1ED
100
AcDbEntity
  8
GARIS_TABLE
100
AcDbLine
 10
32.0
 20
-5.0
 30
0.0
 11
32.0
 21
-10.0
 31
0.0
  0
LINE
  5
200
330
1ED
100
AcDbEntity
  8
GARIS_ELEV
100
AcDbLine
 10
32.0
 20
0.0
 30
0.0
 11
32.0
 21
92.0
 31
0.0
  0
LINE
  5
201
330
1ED
100
AcDbEntity
  8
GARIS_TABLE
100
AcDbLine
 10
32.0
 20
0.0
 30
0.0
 11
102.0
 21
0.0
 31
0.0
  0
LINE
  5
202
330
1ED
100
AcDbEntity
  8
GARIS_TABLE
100
AcDbLine
 10
32.0
 20
-5.0
 30
0.0
 11
102.0
 21
-5.0
 31
0.0
  0
LINE
  5
203
330
1ED
100
AcDbEntity
  8
GARIS_TABLE
100
AcDbLine
 10
32.0
 20
-10.0
 30
0.0
 11
102.0
 21
-10.0
 31
0.0
  0
LINE
  5
204
330
1ED
100
AcDbEntity
  8
GARIS_TABLE
100
AcDbLine
 10
32.0
 20
-20.0
 30
0.0
 11
102.0
 21
-20.0
 31
0.0
  0
LINE
  5
205
330
1ED
100
AcDbEntity
  8
GARIS_TABLE
100
AcDbLine
 10
32.0
 20
-30.0
 30
0.0
 11
102.0
 21
-30.0
 31
0.0
  0
TEXT
  5
206
330
1ED
100
AcDbEntity
  8
TEXT
 62
4
100
AcDbText
 10
67.0
 20
-7.5
 30
0.0
 40
2.0
  1
7.00
  7
ARIAL
 72
1
 11
67.0
 21
-7.5
 31
0.0
100
AcDbText
 73
2
  0
LINE
  5
207
330
1ED
100
AcDbEntity
  8
GARIS_ELEV
100
AcDbLine
 10
32.0
 20
92.0
 30
0.0
 11
102.0
 21
52.0
 31
0.0
  0
TEXT
  5
208
330
1ED
100
AcDbEntity
  8
TEXT
100
AcDbText
 10
102.0
 20
-2.5
 30
0.0
 40
2.0
  1
L1
  7
ARIAL
 72
1
 11
102.0
 21
-2.5
 31
0.0
100
AcDbText
 73
2
  0
TEXT
  5
209
330
1ED
100
AcDbEntity
  8
TEXT
 62
4
100
AcDbText
 10
102.0
 20
-15.0
 30
0.0
 40
2.0
  1
54.0
 50
90.0
  7
ARIAL
 72
1
 11
102.0
 21
-15.0
 31
0.0
100
AcDbText
 73
2
  0
TEXT
  5
20A
330
1ED
100
AcDbEntity
  8
TEXT
 62
4
100
AcDbText
 10
102.0
 20
-25.0
 30
0.0
 40
2.0
  1
-5.00
 50
90.0
  7
ARIAL
 72
1
 11
102.0
 21
-25.0
 31
0.0
100
AcDbText
 73
2
  0
LINE
  5
20B
330
1ED
100
AcDbEntity
  8
GARIS_TABLE
100
AcDbLine
 10
102.0
 20
-5.0
 30
0.0
 11
102.0
 21
-10.0
 31
0.0
  0
LINE
  5
20C
330
1ED
100
AcDbEntity
  8
GARIS_ELEV
100
AcDbLine
 10
102.0
 20
0.0
 30
0.0
 11
102.0
 21
52.0
 31
0.0
  0
LINE
  5
20D
330
1ED
100
AcDbEntity
  8
GARIS_TABLE
100
AcDbLine
 10
102.0
 20
0.0
 30
0.0
 11
152.0
 21
0.0
 31
0.0
  0
LINE
  5
20E
330
1ED
100
AcDbEntity
  8
GARIS_TABLE
100
AcDbLine
 10
102.0
 20
-5.0
 30
0.0
 11
152.0
 21
-5.0
 31
0.0
  0
LINE
  5
20F
330
1ED
100
AcDbEntity
  8
GARIS_TABLE
100
AcDbLine
 10
102.0
 20
-10.0
 30
0.0
 11
152.0
 21
-10.0
 31
0.0
  0
LINE
  5
210
330
1ED
100
AcDbEntity
  8
GARIS_TABLE
100
AcDbLine
 10
102.0
 20
-20.0
 30
0.0
 11
152.0
 21
-20.0
 31
0.0
  0
LINE
  5
211
330
1ED
100
AcDbEntity
  8
GARIS_TABLE
100
AcDbLine
 10
102.0
 20
-30.0
 30
0.0
 11
152.0
 21
-30.0
 31
0.0
  0
TEXT
  5
212
330
1ED
100
AcDbEntity
  8
TEXT
 62
4
100
AcDbText
 10
127.0
 20
-7.5
 30
0.0
 40
2.0
  1
5.00
  7
ARIAL
 72
1
 11
127.0
 21
-7.5
 31
0.0
100
AcDbText
 73
2
  0
LINE
  5
213
330
1ED
100
AcDbEntity
  8
GARIS_ELEV
100
AcDbLine
 10
102.0
 20
52.0
 30
0.0
 11
152.0
 21
54.0
 31
0.0
  0
TEXT
  5
214
330
1ED
100
AcDbEntity
  8
TEXT
100
AcDbText
 10
152.0
 20
-2.5
 30
0.0
 40
2.0
  1
STA 7
  7
ARIAL
 72
1
 11
152.0
 21
-2.5
 31
0.0
100
AcDbText
 73
2
  0
TEXT
  5
215
330
1ED
100
AcDbEntity
  8
TEXT
 62
4
100
AcDbText
 10
152.0
 20
-15.0
 30
0.0
 40
2.0
  1
54.2
 50
90.0
  7
ARIAL
 72
1
 11
152.0
 21
-15.0
 31
0.0
100
AcDbText
 73
2
  0
TEXT
  5
216
330
1ED
100
AcDbEntity
  8
TEXT
 62
4
100
AcDbText
 10
152.0
 20
-25.0
 30
0.0
 40
2.0
  1
0.00
 50
90.0
  7
ARIAL
 72
1
 11
152.0
 21
-25.0
 31
0.0
100
AcDbText
 73
2
  0
LINE
  5
217
330
1ED
100
AcDbEntity
  8
GARIS_TABLE
100
AcDbLine
 10
152.0
 20
-5.0
 30
0.0
 11
152.0
 21
-10.0
 31
0.0
  0
LINE
  5
218
330
1ED
100
AcDbEntity
  8
GARIS_ELEV
100
AcDbLine
 10
152.0
 20
0.0
 30
0.0
 11
152.0
 21
54.0
 31
0.0
  0
LINE
  5
219
330
1ED
100
AcDbEntity
  8
GARIS_TABLE
100
AcDbLine
 10
152.0
 20
0.0
 30
0.0
 11
202.0
 21
0.0
 31
0.0
  0
LINE
  5
21A
330
1ED
100
AcDbEntity
  8
GARIS_TABLE
100
AcDbLine
 10
152.0
 20
-5.0
 30
0.0
 11
202.0
 21
-5.0
 31
0.0
  0
LINE
  5
21B
330
1ED
100
AcDbEntity
  8
GARIS_TABLE
100
AcDbLine
 10
152.0
 20
-10.0
 30
0.0
 11
202.0
 21
-10.0
 31
0.0
  0
LINE
  5
21C
330
1ED
100
AcDbEntity
  8
GARIS_TABLE
100
AcDbLine
 10
152.0
 20
-20.0
 30
0.0
 11
202.0
 21
-20.0
 31
0.0
  0
LINE
  5
21D
330
1ED
100
AcDbEntity
  8
GARIS_TABLE
100
AcDbLine
 10
152.0
 20
-30.0
 30
0.0
 11
202.0
 21
-30.0
 31
0.0
  0
TEXT
  5
21E
330
1ED
100
AcDbEntity
  8
TEXT
 62
4
100
AcDbText
 10
177.0
 20
-7.5
 30
0.0
 40
2.0
  1
5.00
  7
ARIAL
 72
1
 11
177.0
 21
-7.5
 31
0.0
100
AcDbText
 73
2
  0
LINE
  5
21F
330
1ED
100
AcDbEntity
  8
GARIS_ELEV
100
AcDbLine
 10
152.0
 20
54.0
 30
0.0
 11
202.0
 21
52.0
 31
0.0
  0
TEXT
  5
220
330
1ED
100
AcDbEntity
  8
TEXT
100
AcDbText
 10
202.0
 20
-2.5
 30
0.0
 40
2.0
  1
R1
  7
ARIAL
 72
1
 11
202.0
 21
-2.5
 31
0.0
100
AcDbText
 73
2
  0
TEXT
  5
221
330
1ED
100
AcDbEntity
  8
TEXT
 62
4
100
AcDbText
 10
202.0
 20
-15.0
 30
0.0
 40
2.0
  1
54.0
 50
90.0
  7
ARIAL
 72
1
 11
202.0
 21
-15.0
 31
0.0
100
AcDbText
 73
2
  0
TEXT
  5
222
330
1ED
100
AcDbEntity
  8
TEXT
 62
4
100
AcDbText
 10
202.0
 20
-25.0
 30
0.0
 40
2.0
  1
5.00
 50
90.0
  7
ARIAL
 72
1
 11
202.0
 21
-25.0
 31
0.0
100
AcDbText
 73
2
  0
LINE
  5
223
330
1ED
100
AcDbEntity
  8
GARIS_TABLE
100
AcDbLine
 10
202.0
 20
-5.0
 30
0.0
 11
202.0
 21
-10.0
 31
0.0
  0
LINE
  5
224
330
1ED
100
AcDbEntity
  8
GARIS_ELEV
100
AcDbLine
 10
202.0
 20
0.0
 30
0.0
 11
202.0
 21
52.0
 31
0.0
  0
LINE
  5
225
330
1ED
100
AcDbEntity
  8
GARIS_TABLE
100
AcDbLine
 10
202.0
 20
0.0
 30
0.0
 11
272.0
 21
0.0
 31
0.0
  0
LINE
  5
226
330
1ED
100
AcDbEntity
  8
GARIS_TABLE
100
AcDbLine
 10
202.0
 20
-5.0
 30
0.0
 11
272.0
 21
-5.0
 31
0.0
  0
LINE
  5
227
330
1ED
100
AcDbEntity
  8
GARIS_TABLE
100
AcDbLine
 10
202.0
 20
-10.0
 30
0.0
 11
272.0
 21
-10.0
 31
0.0
  0
LINE
  5
228
330
1ED
100
AcDbEntity
  8
GARIS_TABLE
100
AcDbLine
 10
202.0
 20
-20.0
 30
0.0
 11
272.0
 21
-20.0
 31
0.0
  0
LINE
  5
229
330
1ED
100
AcDbEntity
  8
GARIS_TABLE
100
AcDbLine
 10
202.0
 20
-30.0
 30
0.0
 11
272.0
 21
-30.0
 31
0.0
  0
TEXT
  5
22A
330
1ED
100
AcDbEntity
  8
TEXT
 62
4
100
AcDbText
 10
237.0
 20
-7.5
 30
0.0
 40
2.0
  1
7.00
  7
ARIAL
 72
1
 11
237.0
 21
-7.5
 31
0.0
100
AcDbText
 73
2
  0
LINE
  5
22B
330
1ED
100
AcDbEntity
  8
GARIS_ELEV
100
AcDbLine
 10
202.0
 20
52.0
 30
0.0
 11
272.0
 21
2.0
 31
0.0
  0
LINE
  5
22C
330
1ED
100
AcDbEntity
  8
GARIS_TABLE
100
AcDbLine
 10
275.0
 20
0.0
 30
0.0
 11
275.0
 21
-30.0
 31
0.0
  0
LINE
  5
22D
330
1ED
100
AcDbEntity
  8
GARIS_TABLE
100
AcDbLine
 10
272.0
 20
0.0
 30
0.0
 11
275.0
 21
0.0
 31
0.0
  0
LINE
  5
22E
330
1ED
100
AcDbEntity
  8
GARIS_TABLE
100
AcDbLine
 10
272.0
 20
-5.0
 30
0.0
 11
275.0
 21
-5.0
 31
0.0
  0
LINE
  5
22F
330
1ED
100
AcDbEntity
  8
GARIS_TABLE
100
AcDbLine
 10
272.0
 20
-10.0
 30
0.0
 11
275.0
 21
-10.0
 31
0.0
  0
LINE
  5
230
330
1ED
100
AcDbEntity
  8
GARIS_TABLE
100
AcDbLine
 10
272.0
 20
-20.0
 30
0.0
 11
275.0
 21
-20.0
 31
0.0
  0
LINE
  5
231
330
1ED
100
AcDbEntity
  8
GARIS_TABLE
100
AcDbLine
 10
272.0
 20
-30.0
 30
0.0
 11
275.0
 21
-30.0
 31
0.0
  0
TEXT
  5
232
330
1ED
100
AcDbEntity
  8
TEXT
370
0
100
AcDbText
 10
136.0
 20
-40.0
 30
0.0
 40
3.5
  1
STA 7
  7
ARIAL
 72
1
 11
136.0
 21
-40.0
 31
0.0
100
AcDbText
 73
2
  0
TEXT
  5
233
330
1ED
100
AcDbEntity
  8
TEXT
100
AcDbText
 10
272.0
 20
-2.5
 30
0.0
 40
2.0
  1
R2
  7
ARIAL
 72
1
 11
272.0
 21
-2.5
 31
0.0
100
AcDbText
 73
2
  0
TEXT
  5
234
330
1ED
100
AcDbEntity
  8
TEXT
 62
4
100
AcDbText
 10
272.0
 20
-15.0
 30
0.0
 40
2.0
  1
49.0
 50
90.0
  7
ARIAL
 72
1
 11
272.0
 21
-15.0
 31
0.0
100
AcDbText
 73
2
  0
TEXT
  5
235
330
1ED
100
AcDbEntity
  8
TEXT
 62
4
100
AcDbText
 10
272.0
 20
-25.0
 30
0.0
 40
2.0
  1
12.00
 50
90.0
  7
ARIAL
 72
1
 11
272.0
 21
-25.0
 31
0.0
100
AcDbText
 73
2
  0
LINE
  5
236
330
1ED
100
AcDbEntity
  8
GARIS_TABLE
100
AcDbLine
 10
272.0
 20
-5.0
 30
0.0
 11
272.0
 21
-10.0
 31
0.0
  0
LINE
  5
237
330
1ED
100
AcDbEntity
  8
GARIS_ELEV
100
AcDbLine
 10
272.0
 20
0.0
 30
0.0
 11
272.0
 21
2.0
 31
0.0
  0
ENDBLK
  5
1EF
330
1ED
100
AcDbEntity
  8
0
100
AcDbBlockEnd
  0
BLOCK
  5
239
330
238
100
AcDbEntity
  8
0
100
AcDbBlockBegin
  2
DATA_SURVEY_8
 70
0
 10
0.0
 20
-42.72169167803547
 30
0.0
  3
DATA_SURVEY_8
  1

  0
TEXT
  5
23B
330
238
100
AcDbEntity
  8
TEXT
100
AcDbText
 10
2.0
 20
-7.5
 30
0.0
 40
2.5
  1
JARAK (M)
  7
ARIAL
 11
2.0
 21
-7.5
 31
0.0
100
AcDbText
 73
2
  0
TEXT
  5
23C
330
238
100
AcDbEntity
  8
TEXT
100
AcDbText
 10
2.0
 20
-15.0
 30
0.0
 40
2.5
  1
ELEVASI (M)
  7
ARIAL
 11
2.0
 21
-15.0
 31
0.0
100
AcDbText
 73
2
  0
TEXT
  5
23D
330
238
100
AcDbEntity
  8
TEXT
100
AcDbText
 10
2.0
 20
-25.0
 30
0.0
 40
2.5
  1
JARAK K (M)
  7
ARIAL
 11
2.0
 21
-25.0
 31
0.0
100
AcDbText
 73
2
  0
TEXT
  5
23E
330
238
100
AcDbEntity
  8
TEXT
100
AcDbText
 10
2.0
 20
-2.5
 30
0.0
 40
2.5
  1
TITIK
  7
ARIAL
 11
2.0
 21
-2.5
 31
0.0
100
AcDbText
 73
2
  0
TEXT
  5
23F
330
238
100
AcDbEntity
  8
TEXT
100
AcDbText
 10
2.0
 20
2.5
 30
0.0
 40
2.5
  1
DL = 49M
  7
ARIAL
 11
2.0
 21
2.5
 31
0.0
100
AcDbText
 73
2
  0
LINE
  5
240
330
238
100
AcDbEntity
  8
GARIS_TABLE
100
AcDbLine
 10
0.0
 20
0.0
 30
0.0
 11
32.0
 21
0.0
 31
0.0
  0
LINE
  5
241
330
238
100
AcDbEntity
  8
GARIS_TABLE
100
AcDbLine
 10
0.0
 20
-5.0
 30
0.0
 11
32.0
 21
-5.0
 31
0.0
  0
LINE
  5
242
330
238
100
AcDbEntity
  8
GARIS_TABLE
100
AcDbLine
 10
0.0
 20
-10.0
 30
0.0
 11
32.0
 21
-10.0
 31
0.0
  0
LINE
  5
243
330
238
100
AcDbEntity
  8
GARIS_TABLE
100
AcDbLine
 10
0.0
 20
-20.0
 30
0.0
 11
32.0
 21
-20.0
 31
0.0
  0
LINE
  5
244
330
238
100
AcDbEntity
  8
GARIS_TABLE
100
AcDbLine
 10
0.0
 20
-30.0
 30
0.0
 11
32.0
 21
-30.0
 31
0.0
  0
LINE
  5
245
330
238
100
AcDbEntity
  8
GARIS_TABLE
100
AcDbLine
 10
0.0
 20
0.0
 30
0.0
 11
0.0
 21
-30.0
 31
0.0
  0
LINE
  5
246
330
238
100
AcDbEntity
  8
GARIS_TABLE
100
AcDbLine
 10
29.0
 20
0.0
 30
0.0
 11
29.0
 21
-30.0
 31
0.0
  0
TEXT
  5
247
330
238
100
AcDbEntity
  8
TEXT
100
AcDbText
 10
32.0
 20
-2.5
 30
0.0
 40
2.0
  1
L2
  7
ARIAL
 72
1
 11
32.0
 21
-2.5
 31
0.0
100
AcDbText
 73
2
  0
TEXT
  5
248
330
238
100
AcDbEntity
  8
TEXT
 62
4
100
AcDbText
 10
32.0
 20
-15.0
 30
0.0
 40
2.0
  1
56.5
 50
90.0
  7
ARIAL
 72
1
 11
32.0
 21
-15.0
 31
0.0
100
AcDbText
 73
2
  0
TEXT
  5
249
330
238
100
AcDbEntity
  8
TEXT
 62
4
100
AcDbText
 10
32.0
 20
-25.0
 30
0.0
 40
2.0
  1
-9.00
 50
90.0
  7
ARIAL
 72
1
 11
32.0
 21
-25.0
 31
0.0
100
AcDbText
 73
2
  0
LINE
  5
24A
330
238
100
AcDbEntity
  8
GARIS_TABLE
100
AcDbLine
 10
32.0
 20
-5.0
 30
0.0
 11
32.0
 21
-10.0
 31
0.0
  0
LINE
  5
24B
330
238
100
AcDbEntity
  8
GARIS_ELEV
100
AcDbLine
 10
32.0
 20
0.0
 30
0.0
 11
32.0
 21
52.0
 31
0.0
  0
LINE
  5
24C
330
238
100
AcDbEntity
  8
GARIS_TABLE
100
AcDbLine
 10
32.0
 20
0.0
 30
0.0
 11
72.0
 21
0.0
 31
0.0
  0
LINE
  5
24D
330
238
100
AcDbEntity
  8
GARIS_TABLE
100
AcDbLine
 10
32.0
 20
-5.0
 30
0.0
 11
72.0
 21
-5.0
 31
0.0
  0
LINE
  5
24E
330
238
100
AcDbEntity
  8
GARIS_TABLE
100
AcDbLine
 10
32.0
 20
-10.0
 30
0.0
 11
72.0
 21
-10.0
 31
0.0
  0
LINE
  5
24F
330
238
100
AcDbEntity
  8
GARIS_TABLE
100
AcDbLine
 10
32.0
 20
-20.0
 30
0.0
 11
72.0
 21
-20.0
 31
0.0
  0
LINE
  5
250
330
238
100
AcDbEntity
  8
GARIS_TABLE
100
AcDbLine
 10
32.0
 20
-30.0
 30
0.0
 11
72.0
 21
-30.0
 31
0.0
  0
TEXT
  5
251
330
238
100
AcDbEntity
  8
TEXT
 62
4
100
AcDbText
 10
52.0
 20
-7.5
 30
0.0
 40
2.0
  1
4.00
  7
ARIAL
 72
1
 11
52.0
 21
-7.5
 31
0.0
100
AcDbText
 73
2
  0
LINE
  5
252
330
238
100
AcDbEntity
  8
GARIS_ELEV
100
AcDbLine
 10
32.0
 20
52.0
 30
0.0
 11
72.0
 21
35.0
 31
0.0
  0
TEXT
  5
253
330
238
100
AcDbEntity
  8
TEXT
100
AcDbText
 10
72.0
 20
-2.5
 30
0.0
 40
2.0
  1
L1
  7
ARIAL
 72
1
 11
72.0
 21
-2.5
 31
0.0
100
AcDbText
 73
2
  0
TEXT
  5
254
330
238
100
AcDbEntity
  8
TEXT
 62
4
100
AcDbText
 10
72.0
 20
-15.0
 30
0.0
 40
2.0
  1
54.8
 50
90.0
  7
ARIAL
 72
1
 11
72.0
 21
-15.0
 31
0.0
100
AcDbText
 73
2
  0
TEXT
  5
255
330
238
100
AcDbEntity
  8
TEXT
 62
4
100
AcDbText
 10
72.0
 20
-25.0
 30
0.0
 40
2.0
  1
-5.00
 50
90.0
  7
ARIAL
 72
1
 11
72.0
 21
-25.0
 31
0.0
100
AcDbText
 73
2
  0
LINE
  5
256
330
238
100
AcDbEntity
  8
GARIS_TABLE
100
AcDbLine
 10
72.0
 20
-5.0
 30
0.0
 11
72.0
 21
-10.0
 31
0.0
  0
LINE
  5
257
330
238
100
AcDbEntity
  8
GARIS_ELEV
100
AcDbLine
 10
72.0
 20
0.0
 30
0.0
 11
72.0
 21
35.0
 31
0.0
  0
LINE
  5
258
330
238
100
AcDbEntity
  8
GARIS_TABLE
100
AcDbLine
 10
72.0
 20
0.0
 30
0.0
 11
122.0
 21
0.0
 31
0.0
  0
LINE
  5
259
330
238
100
AcDbEntity
  8
GARIS_TABLE
100
AcDbLine
 10
72.0
 20
-5.0
 30
0.0
 11
122.0
 21
-5.0
 31
0.0
  0
LINE
  5
25A
330
238
100
AcDbEntity
  8
GARIS_TABLE
100
AcDbLine
 10
72.0
 20
-10.0
 30
0.0
 11
122.0
 21
-10.0
 31
0.0
  0
LINE
  5
25B
330
238
100
AcDbEntity
  8
GARIS_TABLE
100
AcDbLine
 10
72.0
 20
-20.0
 30
0.0
 11
122.0
 21
-20.0
 31
0.0
  0
LINE
  5
25C
330
238
100
AcDbEntity
  8
GARIS_TABLE
100
AcDbLine
 10
72.0
 20
-30.0
 30
0.0
 11
122.0
 21
-30.0
 31
0.0
  0
TEXT
  5
25D
330
238
100
AcDbEntity
  8
TEXT
 62
4
100
AcDbText
 10
97.0
 20
-7.5
 30
0.0
 40
2.0
  1
5.00
  7
ARIAL
 72
1
 11
97.0
 21
-7.5
 31
0.0
100
AcDbText
 73
2
  0
LINE
  5
25E
330
238
100
AcDbEntity
  8
GARIS_ELEV
100
AcDbLine
 10
72.0
 20
35.0
 30
0.0
 11
122.0
 21
37.0
 31
0.0
  0
TEXT
  5
25F
330
238
100
AcDbEntity
  8
TEXT
100
AcDbText
 10
122.0
 20
-2.5
 30
0.0
 40
2.0
  1
STA 8
  7
ARIAL
 72
1
 11
122.0
 21
-2.5
 31
0.0
100
AcDbText
 73
2
  0
TEXT
  5
260
330
238
100
AcDbEntity
  8
TEXT
 62
4
100
AcDbText
 10
122.0
 20
-15.0
 30
0.0
 40
2.0
  1
55.0
 50
90.0
  7
ARIAL
 72
1
 11
122.0
 21
-15.0
 31
0.0
100
AcDbText
 73
2
  0
TEXT
  5
261
330
238
100
AcDbEntity
  8
TEXT
 62
4
100
AcDbText
 10
122.0
 20
-25.0
 30
0.0
 40
2.0
  1
0.00
 50
90.0
  7
ARIAL
 72
1
 11
122.0
 21
-25.0
 31
0.0
100
AcDbText
 73
2
  0
LINE
  5
262
330
238
100
AcDbEntity
  8
GARIS_TABLE
100
AcDbLine
 10
122.0
 20
-5.0
 30
0.0
 11
122.0
 21
-10.0
 31
0.0
  0
LINE
  5
263
330
238
100
AcDbEntity
  8
GARIS_ELEV
100
AcDbLine
 10
122.0
 20
0.0
 30
0.0
 11
122.0
 21
37.0
 31
0.0
  0
LINE
  5
264
330
238
100
AcDbEntity
  8
GARIS_TABLE
100
AcDbLine
 10
122.0
 20
0.0
 30
0.0
 11
172.0
 21
0.0
 31
0.0
  0
LINE
  5
265
330
238
100
AcDbEntity
  8
GARIS_TABLE
100
AcDbLine
 10
122.0
 20
-5.0
 30
0.0
 11
172.0
 21
-5.0
 31
0.0
  0
LINE
  5
266
330
238
100
AcDbEntity
  8
GARIS_TABLE
100
AcDbLine
 10
122.0
 20
-10.0
 30
0.0
 11
172.0
 21
-10.0
 31
0.0
  0
LINE
  5
267
330
238
100
AcDbEntity
  8
GARIS_TABLE
100
AcDbLine
 10
122.0
 20
-20.0
 30
0.0
 11
172.0
 21
-20.0
 31
0.0
  0
LINE
  5
268
330
238
100
AcDbEntity
  8
GARIS_TABLE
100
AcDbLine
 10
122.0
 20
-30.0
 30
0.0
 11
172.0
 21
-30.0
 31
0.0
  0
TEXT
  5
269
330
238
100
AcDbEntity
  8
TEXT
 62
4
100
AcDbText
 10
147.0
 20
-7.5
 30
0.0
 40
2.0
  1
5.00
  7
ARIAL
 72
1
 11
147.0
 21
-7.5
 31
0.0
100
AcDbText
 73
2
  0
LINE
  5
26A
330
238
100
AcDbEntity
  8
GARIS_ELEV
100
AcDbLine
 10
122.0
 20
37.0
 30
0.0
 11
172.0
 21
35.0
 31
0.0
  0
TEXT
  5
26B
330
238
100
AcDbEntity
  8
TEXT
100
AcDbText
 10
172.0
 20
-2.5
 30
0.0
 40
2.0
  1
R1
  7
ARIAL
 72
1
 11
172.0
 21
-2.5
 31
0.0
100
AcDbText
 73
2
  0
TEXT
  5
26C
330
238
100
AcDbEntity
  8
TEXT
 62
4
100
AcDbText
 10
172.0
 20
-15.0
 30
0.0
 40
2.0
  1
54.8
 50
90.0
  7
ARIAL
 72
1
 11
172.0
 21
-15.0
 31
0.0
100
AcDbText
 73
2
  0
TEXT
  5
26D
330
238
100
AcDbEntity
  8
TEXT
 62
4
100
AcDbText
 10
172.0
 20
-25.0
 30
0.0
 40
2.0
  1
5.00
 50
90.0
  7
ARIAL
 72
1
 11
172.0
 21
-25.0
 31
0.0
100
AcDbText
 73
2
  0
LINE
  5
26E
330
238
100
AcDbEntity
  8
GARIS_TABLE
100
AcDbLine
 10
172.0
 20
-5.0
 30
0.0
 11
172.0
 21
-10.0
 31
0.0
  0
LINE
  5
26F
330
238
100
AcDbEntity
  8
GARIS_ELEV
100
AcDbLine
 10
172.0
 20
0.0
 30
0.0
 11
172.0
 21
35.0
 31
0.0
  0
LINE
  5
270
330
238
100
AcDbEntity
  8
GARIS_TABLE
100
AcDbLine
 10
172.0
 20
0.0
 30
0.0
 11
222.0
 21
0.0
 31
0.0
  0
LINE
  5
271
330
238
100
AcDbEntity
  8
GARIS_TABLE
100
AcDbLine
 10
172.0
 20
-5.0
 30
0.0
 11
222.0
 21
-5.0
 31
0.0
  0
LINE
  5
272
330
238
100
AcDbEntity
  8
GARIS_TABLE
100
AcDbLine
 10
172.0
 20
-10.0
 30
0.0
 11
222.0
 21
-10.0
 31
0.0
  0
LINE
  5
273
330
238
100
AcDbEntity
  8
GARIS_TABLE
100
AcDbLine
 10
172.0
 20
-20.0
 30
0.0
 11
222.0
 21
-20.0
 31
0.0
  0
LINE
  5
274
330
238
100
AcDbEntity
  8
GARIS_TABLE
100
AcDbLine
 10
172.0
 20
-30.0
 30
0.0
 11
222.0
 21
-30.0
 31
0.0
  0
TEXT
  5
275
330
238
100
AcDbEntity
  8
TEXT
 62
4
100
AcDbText
 10
197.0
 20
-7.5
 30
0.0
 40
2.0
  1
5.00
  7
ARIAL
 72
1
 11
197.0
 21
-7.5
 31
0.0
100
AcDbText
 73
2
  0
LINE
  5
276
330
238
100
AcDbEntity
  8
GARIS_ELEV
100
AcDbLine
 10
172.0
 20
35.0
 30
0.0
 11
222.0
 21
2.0
 31
0.0
  0
LINE
  5
277
330
238
100
AcDbEntity
  8
GARIS_TABLE
100
AcDbLine
 10
225.0
 20
0.0
 30
0.0
 11
225.0
 21
-30.0
 31
0.0
  0
LINE
  5
278
330
238
100
AcDbEntity
  8
GARIS_TABLE
100
AcDbLine
 10
222.0
 20
0.0
 30
0.0
 11
225.0
 21
0.0
 31
0.0
  0
LINE
  5
279
330
238
100
AcDbEntity
  8
GARIS_TABLE
100
AcDbLine
 10
222.0
 20
-5.0
 30
0.0
 11
225.0
 21
-5.0
 31
0.0
  0
LINE
  5
27A
330
238
100
AcDbEntity
  8
GARIS_TABLE
100
AcDbLine
 10
222.0
 20
-10.0
 30
0.0
 11
225.0
 21
-10.0
 31
0.0
  0
LINE
  5
27B
330
238
100
AcDbEntity
  8
GARIS_TABLE
100
AcDbLine
 10
222.0
 20
-20.0
 30
0.0
 11
225.0
 21
-20.0
 31
0.0
  0
LINE
  5
27C
330
238
100
AcDbEntity
  8
GARIS_TABLE
100
AcDbLine
 10
222.0
 20
-30.0
 30
0.0
 11
225.0
 21
-30.0
 31
0.0
  0
TEXT
  5
27D
330
238
100
AcDbEntity
  8
TEXT
370
0
100
AcDbText
 10
111.0
 20
-40.0
 30
0.0
 40
3.5
  1
STA 8
  7
ARIAL
 72
1
 11
111.0
 21
-40.0
 31
0.0
100
AcDbText
 73
2
  0
TEXT
  5
27E
330
238
100
AcDbEntity
  8
TEXT
100
AcDbText
 10
222.0
 20
-2.5
 30
0.0
 40
2.0
  1
R2
  7
ARIAL
 72
1
 11
222.0
 21
-2.5
 31
0.0
100
AcDbText
 73
2
  0
TEXT
  5
27F
330
238
100
AcDbEntity
  8
TEXT
 62
4
100
AcDbText
 10
222.0
 20
-15.0
 30
0.0
 40
2.0
  1
51.5
 50
90.0
  7
ARIAL
 72
1
 11
222.0
 21
-15.0
 31
0.0
100
AcDbText
 73
2
  0
TEXT
  5
280
330
238
100
AcDbEntity
  8
TEXT
 62
4
100
AcDbText
 10
222.0
 20
-25.0
 30
0.0
 40
2.0
  1
10.00
 50
90.0
  7
ARIAL
 72
1
 11
222.0
 21
-25.0
 31
0.0
100
AcDbText
 73
2
  0
LINE
  5
281
330
238
100
AcDbEntity
  8
GARIS_TABLE
100
AcDbLine
 10
222.0
 20
-5.0
 30
0.0
 11
222.0
 21
-10.0
 31
0.0
  0
LINE
  5
282
330
238
100
AcDbEntity
  8
GARIS_ELEV
100
AcDbLine
 10
222.0
 20
0.0
 30
0.0
 11
222.0
 21
2.0
 31
0.0
  0
ENDBLK
  5
23A
330
238
100
AcDbEntity
  8
0
100
AcDbBlockEnd
  0
BLOCK
  5
284
330
283
100
AcDbEntity
  8
0
100
AcDbBlockBegin
  2
horizontal_1
 70
0
 10
30.0
 20
-1.3322676295501878e-15
 30
0.0
  3
horizontal_1
  1

  0
INSERT
  5
286
330
283
100
AcDbEntity
  8
0
100
AcDbBlockReference
  2
DATA_SURVEY_1
 10
30.0
 20
0.0
 30
0.0
  0
INSERT
  5
288
330
283
100
AcDbEntity
  8
0
100
AcDbBlockReference
  2
DATA_SURVEY_2
 10
215.0
 20
0.0
 30
0.0
  0
INSERT
  5
28A
330
283
100
AcDbEntity
  8
0
100
AcDbBlockReference
  2
DATA_SURVEY_3
 10
390.0
 20
0.0
 30
0.0
  0
ENDBLK
  5
285
330
283
100
AcDbEntity
  8
0
100
AcDbBlockEnd
  0
BLOCK
  5
28D
330
28C
100
AcDbEntity
  8
0
100
AcDbBlockBegin
  2
horizontal_2
 70
0
 10
30.0
 20
-1.3322676295501878e-15
 30
0.0
  3
horizontal_2
  1

  0
INSERT
  5
28F
330
28C
100
AcDbEntity
  8
0
100
AcDbBlockReference
  2
DATA_SURVEY_4
 10
30.0
 20
0.0
 30
0.0
  0
INSERT
  5
291
330
28C
100
AcDbEntity
  8
0
100
AcDbBlockReference
  2
DATA_SURVEY_5
 10
295.0
 20
0.0
 30
0.0
  0
INSERT
  5
293
330
28C
100
AcDbEntity
  8
0
100
AcDbBlockReference
  2
DATA_SURVEY_6
 10
460.0
 20
0.0
 30
0.0
  0
ENDBLK
  5
28E
330
28C
100
AcDbEntity
  8
0
100
AcDbBlockEnd
  0
BLOCK
  5
296
330
295
100
AcDbEntity
  8
0
100
AcDbBlockBegin
  2
horizontal_3
 70
0
 10
30.0
 20
-1.3322676295501878e-15
 30
0.0
  3
horizontal_3
  1

  0
INSERT
  5
298
330
295
100
AcDbEntity
  8
0
100
AcDbBlockReference
  2
DATA_SURVEY_7
 10
30.0
 20
0.0
 30
0.0
  0
INSERT
  5
29A
330
295
100
AcDbEntity
  8
0
100
AcDbBlockReference
  2
DATA_SURVEY_8
 10
335.0
 20
0.0
 30
0.0
  0
ENDBLK
  5
297
330
295
100
AcDbEntity
  8
0
100
AcDbBlockEnd
  0
BLOCK
  5
29D
330
29C
100
AcDbEntity
  8
0
100
AcDbBlockBegin
  2
keseluruhan gambar1
 70
0
 10
0.0
 20
0.0
 30
0.0
  3
keseluruhan gambar1
  1

  0
INSERT
  5
2A8
330
29C
100
AcDbEntity
  8
0
100
AcDbBlockReference
  2
keseluruhan data1
 10
183.0
 20
200.0
 30
0.0
  0
INSERT
  5
2AA
330
29C
100
AcDbEntity
  8
0
100
AcDbBlockReference
  2
A1
 10
200.0
 20
200.0
 30
0.0
  0
ENDBLK
  5
29E
330
29C
100
AcDbEntity
  8
0
100
AcDbBlockEnd
  0
BLOCK
  5
2A0
330
29F
100
AcDbEntity
  8
0
100
AcDbBlockBegin
  2
keseluruhan data1
 70
0
 10
346.0
 20
-106.36084583901774
 30
0.0
  3
keseluruhan data1
  1

  0
INSERT
  5
2A2
330
29F
100
AcDbEntity
  8
0
100
AcDbBlockReference
  2
horizontal_1
 10
56.0
 20
0.0
 30
0.0
  0
INSERT
  5
2A4
330
29F
100
AcDbEntity
  8
0
100
AcDbBlockReference
  2
horizontal_2
 10
56.0
 20
-109.72169167803547
 30
0.0
  0
INSERT
  5
2A6
330
29F
100
AcDbEntity
  8
0
100
AcDbBlockReference
  2
horizontal_3
 10
56.0
 20
-284.44338335607097
 30
0.0
  0
ENDBLK
  5
2A1
330
29F
100
AcDbEntity
  8
0
100
AcDbBlockEnd
  0
ENDSEC
  0
SECTION
  2
ENTITIES
  0
INSERT
  5
2AC
330
17
100
AcDbEntity
  8
0
100
AcDbBlockReference
  2
keseluruhan gambar1
 10
0.0
 20
0.0
 30
0.0
  0
ENDSEC
  0
SECTION
  2
OBJECTS
  0
DICTIONARY
  5
A
330
0
100
AcDbDictionary
281
1
  3
ACAD_COLOR
350
B
  3
ACAD_GROUP
350
C
  3
ACAD_LAYOUT
350
D
  3
ACAD_MATERIAL
350
E
  3
ACAD_MLEADERSTYLE
350
F
  3
ACAD_MLINESTYLE
350
10
  3
ACAD_PLOTSETTINGS
350
11
  3
ACAD_PLOTSTYLENAME
350
12
  3
ACAD_SCALELIST
350
14
  3
ACAD_TABLESTYLE
350
15
  3
ACAD_VISUALSTYLE
350
16
  3
EZDXF_META
350
2D
  0
DICTIONARY
  5
B
330
A
100
AcDbDictionary
281
1
  0
DICTIONARY
  5
C
330
A
100
AcDbDictionary
281
1
  0
DICTIONARY
  5
D
330
A
100
AcDbDictionary
281
1
  3
Model
350
1A
  3
Layout1
350
1E
  0
DICTIONARY
  5
E
330
A
100
AcDbDictionary
281
1
  3
ByBlock
350
1F
  3
ByLayer
350
20
  3
Global
350
21
  0
DICTIONARY
  5
F
330
A
100
AcDbDictionary
281
1
  3
Standard
350
2C
  0
DICTIONARY
  5
10
330
A
100
AcDbDictionary
281
1
  3
Standard
350
22
  0
DICTIONARY
  5
11
330
A
100
AcDbDictionary
281
1
  0
ACDBDICTIONARYWDFLT
  5
12
330
A
100
AcDbDictionary
281
1
  3
Normal
350
13
100
AcDbDictionaryWithDefault
340
13
  0
ACDBPLACEHOLDER
  5
13
330
12
  0
DICTIONARY
  5
14
330
A
100
AcDbDictionary
281
1
  0
DICTIONARY
  5
15
330
A
100
AcDbDictionary
281
1
  0
DICTIONARY
  5
16
330
A
100
AcDbDictionary
281
1
  0
LAYOUT
  5
1A
330
D
100
AcDbPlotSettings
  1

  4
A3
  6

 40
7.5
 41
20.0
 42
7.5
 43
20.0
 44
420.0
 45
297.0
 46
0.0
 47
0.0
 48
0.0
 49
0.0
140
0.0
141
0.0
142
1.0
143
1.0
 70
1024
 72
1
 73
0
 74
5
  7

 75
16
 76
0
 77
2
 78
300
147
1.0
148
0.0
149
0.0
100
AcDbLayout
  1
Model
 70
1
 71
0
 10
0.0
 20
0.0
 11
420.0
 21
297.0
 12
0.0
 22
0.0
 32
0.0
 14
1e+20
 24
1e+20
 34
1e+20
 15
-1e+20
 25
-1e+20
 35
-1e+20
146
0.0
 13
0.0
 23
0.0
 33
0.0
 16
1.0
 26
0.0
 36
0.0
 17
0.0
 27
1.0
 37
0.0
 76
1
330
17
  0
LAYOUT
  5
1E
330
D
100
AcDbPlotSettings
  1

  4
A3
  6

 40
7.5
 41
20.0
 42
7.5
 43
20.0
 44
420.0
 45
297.0
 46
0.0
 47
0.0
 48
0.0
 49
0.0
140
0.0
141
0.0
142
1.0
143
1.0
 70
0
 72
1
 73
0
 74
5
  7

 75
16
 76
0
 77
2
 78
300
147
1.0
148
0.0
149
0.0
100
AcDbLayout
  1
Layout1
 70
1
 71
1
 10
0.0
 20
0.0
 11
420.0
 21
297.0
 12
0.0
 22
0.0
 32
0.0
 14
1e+20
 24
1e+20
 34
1e+20
 15
-1e+20
 25
-1e+20
 35
-1e+20
146
0.0
 13
0.0
 23
0.0
 33
0.0
 16
1.0
 26
0.0
 36
0.0
 17
0.0
 27
1.0
 37
0.0
 76
1
330
1B
  0
MATERIAL
  5
1F
102
{ACAD_REACTORS
330
E
102
}
330
E
100
AcDbMaterial
  1
ByBlock
  2

 70
0
 40
1.0
 71
1
 41
1.0
 91
-1023410177
 42
1.0
 72
1
  3

 73
1
 74
1
 75
1
 44
0.5
 73
0
 45
1.0
 46
1.0
 77
1
  4

 78
1
 79
1
170
1
 48
1.0
171
1
  6

172
1
173
1
174
1
140
1.0
141
1.0
175
1
  7

176
1
177
1
178
1
143
1.0
179
1
  8

270
1
271
1
272
1
145
1.0
146
1.0
273
1
  9

274
1
275
1
276
1
 42
1.0
 72
1
  3

 73
1
 74
1
 75
1
 94
63
  0
MATERIAL
  5
20
102
{ACAD_REACTORS
330
E
102
}
330
E
100
AcDbMaterial
  1
ByLayer
  2

 70
0
 40
1.0
 71
1
 41
1.0
 91
-1023410177
 42
1.0
 72
1
  3

 73
1
 74
1
 75
1
 44
0.5
 73
0
 45
1.0
 46
1.0
 77
1
  4

 78
1
 79
1
170
1
 48
1.0
171
1
  6

172
1
173
1
174
1
140
1.0
141
1.0
175
1
  7

176
1
177
1
178
1
143
1.0
179
1
  8

270
1
271
1
272
1
145
1.0
146
1.0
273
1
  9

274
1
275
1
276
1
 42
1.0
 72
1
  3

 73
1
 74
1
 75
1
 94
63
  0
MATERIAL
  5
21
102
{ACAD_REACTORS
330
E
102
}
330
E
100
AcDbMaterial
  1
Global
  2

 70
0
 40
1.0
 71
1
 41
1.0
 91
-1023410177
 42
1.0
 72
1
  3

 73
1
 74
1
 75
1
 44
0.5
 73
0
 45
1.0
 46
1.0
 77
1
  4

 78
1
 79
1
170
1
 48
1.0
171
1
  6

172
1
173
1
174
1
140
1.0
141
1.0
175
1
  7

176
1
177
1
178
1
143
1.0
179
1
  8

270
1
271
1
272
1
145
1.0
146
1.0
273
1
  9

274
1
275
1
276
1
 42
1.0
 72
1
  3

 73
1
 74
1
 75
1
 94
63
  0
MLINESTYLE
  5
22
102
{ACAD_REACTORS
330
10
102
}
330
10
100
AcDbMlineStyle
  2
Standard
 70
0
  3

 62
256
 51
90.0
 52
90.0
 71
2
 49
0.5
 62
256
  6
BYLAYER
 49
-0.5
 62
256
  6
BYLAYER
  0
MLEADERSTYLE
  5
2C
102
{ACAD_REACTORS
330
F
102
}
330
F
100
AcDbMLeaderStyle
179
2
170
2
171
1
172
0
 90
2
 40
0.0
 41
0.0
173
1
 91
-1056964608
 92
-2
290
1
 42
2.0
291
1
 43
8.0
  3
Standard
 44
4.0
300

342
29
174
1
175
1
176
0
178
1
 93
-1056964608
 45
4.0
292
0
297
0
 46
4.0
 94
-1056964608
 47
1.0
 49
1.0
140
1.0
294
1
141
0.0
177
0
142
1.0
295
0
296
0
143
3.75
271
0
272
9
273
9
  0
DICTIONARY
  5
2D
330
A
100
AcDbDictionary
280
1
281
1
  3
CREATED_BY_EZDXF
350
2E
  3
WRITTEN_BY_EZDXF
350
2B0
  0
DICTIONARYVAR
  5
2E
330
2D
100
DictionaryVariables
280
0
  1
1.4.3 @ 2026-03-30T10:27:05.891460+00:00
  0
DICTIONARYVAR
  5
2B0
330
2D
100
DictionaryVariables
280
0
  1
1.4.3 @ 2026-03-30T10:27:06.146602+00:00
  0
ENDSEC
  0
EOF
